<svg width="164" height="114" viewBox="0 0 164 114" fill="none" xmlns="http://www.w3.org/2000/svg">
<path d="M79.417 111.807L3.18251 66.7539C0.756408 65.3928 -1.32501 63.1523 1.03923 61.6896L77.5522 17.5954C78.7011 16.884 80.4423 16.4199 81.6089 17.0961L161.626 63.5368C164.052 64.9465 164.49 68.8839 162.068 70.2936L89.4661 111.732C87.9421 112.617 86.2138 113.089 84.4516 113.102C82.6893 113.115 80.9541 112.669 79.417 111.807Z" fill="#54C242"/>
<path d="M80.0754 88.3944C104.799 88.3944 124.841 78.4583 124.841 66.2015C124.841 53.9447 104.799 44.0086 80.0754 44.0086C55.3519 44.0086 35.3096 53.9447 35.3096 66.2015C35.3096 78.4583 55.3519 88.3944 80.0754 88.3944Z" fill="#FFFCC7"/>
<path d="M61.7184 58.6271L51.7002 55.4188L18.1147 75.5612C22.2997 79.1628 59.2481 99.6632 63.9279 102.637L104.637 75.38C104.146 74.2443 62.3989 59.6965 61.7184 58.6271Z" fill="url(#paint0_linear_278_1665)"/>
<path d="M66.4496 22.4239C69.4221 21.0836 70.5159 17.0788 68.8928 13.4789C67.2696 9.87902 63.5441 8.0472 60.5716 9.38746C57.5991 10.7277 56.5053 14.7325 58.1284 18.3324C59.7516 21.9323 63.4771 23.7642 66.4496 22.4239Z" fill="#7EA83B"/>
<path d="M60.1499 9.60123L62.2799 8.62018L68.3739 21.5285L65.9699 22.6112" fill="#7EA83B"/>
<path d="M67.9462 21.75C70.9187 20.4098 72.0125 16.405 70.3893 12.805C68.7662 9.20513 65.0407 7.37331 62.0682 8.71357C59.0957 10.0538 58.0019 14.0586 59.625 17.6585C61.2482 21.2585 64.9737 23.0903 67.9462 21.75Z" fill="#A2CB6B"/>
<path d="M67.5773 20.9322C70.176 19.7605 71.1319 16.2585 69.7124 13.1102C68.2929 9.96194 65.0355 8.35965 62.4368 9.53137C59.8381 10.7031 58.8822 14.2051 60.3017 17.3534C61.7212 20.5016 64.9786 22.1039 67.5773 20.9322Z" fill="#ECFFCF"/>
<path d="M63.8793 10.9976L63.623 10.4143C63.5938 10.364 63.5549 10.32 63.5086 10.2848C63.4623 10.2496 63.4096 10.2239 63.3533 10.2091C63.2971 10.1943 63.2385 10.1908 63.1809 10.1987C63.1232 10.2066 63.0678 10.2258 63.0176 10.2552C62.9673 10.2845 62.9233 10.3233 62.8881 10.3696C62.8529 10.4159 62.8271 10.4687 62.8124 10.5249C62.7976 10.5812 62.794 10.6398 62.802 10.6974C62.8099 10.755 62.8291 10.8105 62.8585 10.8606L63.1148 11.444C63.144 11.4942 63.1829 11.5382 63.2292 11.5735C63.2755 11.6087 63.3282 11.6344 63.3845 11.6492C63.4407 11.664 63.4993 11.6675 63.557 11.6596C63.6146 11.6517 63.6701 11.6325 63.7202 11.6031C63.7705 11.5738 63.8145 11.5349 63.8497 11.4887C63.8849 11.4424 63.9107 11.3896 63.9254 11.3334C63.9402 11.2771 63.9438 11.2185 63.9358 11.1609C63.9279 11.1033 63.9087 11.0478 63.8793 10.9976Z" fill="#B5E47C"/>
<path d="M62.3373 12.7609C62.2381 12.7398 62.1491 12.6851 62.0854 12.6062C62.0562 12.5559 62.0173 12.5119 61.971 12.4767C61.9247 12.4415 61.872 12.4158 61.8157 12.401C61.7595 12.3862 61.7009 12.3827 61.6433 12.3906C61.5856 12.3985 61.5302 12.4177 61.48 12.4471C61.4297 12.4764 61.3857 12.5152 61.3505 12.5615C61.3153 12.6078 61.2895 12.6606 61.2748 12.7168C61.26 12.773 61.2565 12.8317 61.2644 12.8893C61.2723 12.9469 61.2915 13.0024 61.3209 13.0525C61.5088 13.3245 61.7852 13.5229 62.1031 13.6138C62.2162 13.6448 62.337 13.6297 62.4389 13.5717C62.5409 13.5137 62.6156 13.4175 62.6466 13.3044C62.6777 13.1913 62.6626 13.0705 62.6045 12.9686C62.5465 12.8666 62.4504 12.7919 62.3373 12.7609Z" fill="#B5E47C"/>
<path d="M61.7097 14.5374C61.5708 14.5249 61.4308 14.5414 61.2987 14.586C60.7596 14.7628 60.9894 15.6157 61.5329 15.4389C61.5904 15.4206 61.6522 15.4206 61.7097 15.4389C61.8269 15.4389 61.9393 15.3923 62.0222 15.3095C62.1051 15.2266 62.1516 15.1142 62.1516 14.997C62.154 14.9375 62.1443 14.8781 62.1232 14.8224C62.102 14.7668 62.0699 14.7159 62.0286 14.673C61.9873 14.6301 61.9378 14.5959 61.883 14.5726C61.8282 14.5493 61.7693 14.5373 61.7097 14.5374Z" fill="#B5E47C"/>
<path d="M62.9029 17.4894C62.8876 17.4334 62.8613 17.3809 62.8257 17.335C62.7901 17.2892 62.7458 17.2508 62.6953 17.222C62.6448 17.1933 62.5891 17.1748 62.5315 17.1676C62.4739 17.1604 62.4154 17.1646 62.3594 17.18C62.1262 17.2548 61.9283 17.4119 61.8025 17.622C61.533 18.1213 62.2931 18.5677 62.5671 18.0639C62.5671 18.0241 62.5892 18.0153 62.5892 18.0108C62.6983 17.9807 62.7917 17.9098 62.8501 17.8127C62.9085 17.7157 62.9274 17.6 62.9029 17.4894Z" fill="#B5E47C"/>
<path d="M63.5169 18.2583C63.4017 18.4764 63.3142 18.708 63.2561 18.9477C63.1236 19.5001 63.9765 19.7387 64.109 19.1819C64.1461 19.0162 64.204 18.8558 64.2814 18.7046C64.5421 18.2009 63.7776 17.7545 63.5169 18.2583Z" fill="#B5E47C"/>
<path d="M66.1509 19.6238C66.103 19.4986 66.0834 19.3643 66.0934 19.2305C66.1288 18.6605 65.245 18.6649 65.2096 19.2305C65.1963 19.4435 65.2264 19.657 65.298 19.858C65.3133 19.9141 65.3396 19.9665 65.3752 20.0124C65.4108 20.0583 65.4551 20.0967 65.5056 20.1254C65.5561 20.1541 65.6118 20.1726 65.6694 20.1798C65.727 20.187 65.7855 20.1828 65.8415 20.1674C65.8976 20.152 65.95 20.1258 65.9959 20.0902C66.0418 20.0545 66.0802 20.0102 66.1089 19.9597C66.1376 19.9093 66.1561 19.8536 66.1633 19.796C66.1705 19.7383 66.1663 19.6798 66.1509 19.6238Z" fill="#B5E47C"/>
<path d="M68.1438 19.1819C68.0872 19.0758 68.0442 18.9629 68.0157 18.8461C67.9846 18.733 67.9099 18.6368 67.8079 18.5788C67.706 18.5208 67.5852 18.5057 67.4721 18.5367C67.359 18.5678 67.2629 18.6425 67.2049 18.7444C67.1468 18.8464 67.1317 18.9672 67.1628 19.0803C67.2123 19.2711 67.285 19.4551 67.3793 19.6283C67.6444 20.1232 68.409 19.6769 68.1438 19.1819Z" fill="#B5E47C"/>
<path d="M69.4698 17.3568C69.4544 17.3008 69.4282 17.2484 69.3926 17.2025C69.3569 17.1566 69.3126 17.1182 69.2621 17.0895C69.2116 17.0607 69.156 17.0422 69.0984 17.035C69.0407 17.0278 68.9822 17.0321 68.9262 17.0475C68.8822 17.0473 68.8386 17.0382 68.7981 17.021C68.2545 16.8486 68.0247 17.7015 68.5639 17.8739C68.7575 17.9318 68.9624 17.9409 69.1604 17.9004C69.2165 17.885 69.2689 17.8588 69.3148 17.8232C69.3607 17.7875 69.3991 17.7432 69.4278 17.6927C69.4565 17.6423 69.475 17.5866 69.4822 17.529C69.4894 17.4713 69.4852 17.4128 69.4698 17.3568Z" fill="#B5E47C"/>
<path d="M69.4695 14.4269L68.8111 14.4976C68.6939 14.4976 68.5814 14.5442 68.4986 14.6271C68.4157 14.71 68.3691 14.8224 68.3691 14.9396C68.3691 14.9976 68.3806 15.0551 68.4028 15.1087C68.425 15.1623 68.4575 15.211 68.4986 15.252C68.5396 15.2931 68.5883 15.3256 68.6419 15.3478C68.6956 15.37 68.753 15.3815 68.8111 15.3815L69.4695 15.3108C69.5867 15.3108 69.6991 15.2642 69.782 15.1813C69.8649 15.0985 69.9114 14.9861 69.9114 14.8689C69.9114 14.7517 69.8649 14.6392 69.782 14.5564C69.6991 14.4735 69.5867 14.4269 69.4695 14.4269Z" fill="#B5E47C"/>
<path d="M68.5415 12.4471C68.5123 12.3969 68.4734 12.3529 68.4271 12.3177C68.3808 12.2824 68.3281 12.2567 68.2718 12.2419C68.2156 12.2271 68.157 12.2236 68.0993 12.2315C68.0417 12.2394 67.9863 12.2587 67.9361 12.2881L67.5781 12.5488C67.5279 12.578 67.4839 12.6169 67.4486 12.6632C67.4134 12.7095 67.3877 12.7622 67.3729 12.8185C67.3581 12.8747 67.3546 12.9333 67.3625 12.9909C67.3704 13.0486 67.3896 13.104 67.419 13.1542C67.4483 13.2045 67.4871 13.2485 67.5334 13.2837C67.5797 13.3189 67.6325 13.3446 67.6887 13.3594C67.745 13.3742 67.8036 13.3777 67.8612 13.3698C67.9188 13.3619 67.9743 13.3427 68.0245 13.3133L68.3824 13.0526C68.4327 13.0233 68.4767 12.9845 68.5119 12.9382C68.5471 12.8919 68.5729 12.8391 68.5876 12.7829C68.6024 12.7266 68.6059 12.668 68.598 12.6104C68.5901 12.5528 68.5709 12.4973 68.5415 12.4471Z" fill="#B5E47C"/>
<path d="M66.2084 10.9181L66.0007 11.3247C65.74 11.8284 66.5045 12.2792 66.7652 11.7666L66.9729 11.36C67.2292 10.8607 66.4691 10.4143 66.2084 10.9181Z" fill="#B5E47C"/>
<path d="M66.4516 13.7419C66.2218 13.1807 65.8196 12.5223 65.1258 12.4781C64.9722 12.4684 64.8185 12.496 64.6777 12.5583C64.537 12.6206 64.4133 12.7158 64.3171 12.836L64.2552 12.8625C64.1339 12.9352 64.031 13.035 63.9547 13.1542C63.4377 13.5475 63.3228 14.4799 63.4068 15.0279C63.449 15.3977 63.5921 15.7487 63.8205 16.0425C64.0489 16.3364 64.3537 16.5617 64.7016 16.6939C64.7995 16.7199 64.9011 16.7289 65.0021 16.7204C65.0745 16.7428 65.1483 16.7606 65.223 16.7735C66.9995 17.0342 66.8846 14.8025 66.4516 13.7419Z" fill="#FEFFFD"/>
<path d="M40.4534 45.5023C40.4534 45.5023 39.057 80.8156 80.0091 80.8156C121.231 80.8156 120.077 48.8343 119.565 45.5023C119.052 42.1702 40.4534 45.5023 40.4534 45.5023Z" fill="#68E1FD"/>
<path opacity="0.29" d="M40.4534 45.5023C40.4534 45.5023 39.057 80.8156 80.0091 80.8156C121.231 80.8156 120.077 48.8343 119.565 45.5023C119.052 42.1702 40.4534 45.5023 40.4534 45.5023Z" fill="#093E3E"/>
<path opacity="0.29" d="M66.1594 69.0563C61.4177 61.8266 58.8944 53.3948 57.7631 44.8659C47.6874 45.2018 40.471 45.5067 40.471 45.5067C40.471 45.5067 39.1231 79.6931 78.0867 80.7891C73.3109 77.7846 69.242 73.782 66.1594 69.0563Z" fill="#093E3E"/>
<path d="M80.0093 66.1971C101.855 66.1971 119.565 56.9317 119.565 45.5023C119.565 34.0729 101.855 24.8075 80.0093 24.8075C58.1633 24.8075 40.4536 34.0729 40.4536 45.5023C40.4536 56.9317 58.1633 66.1971 80.0093 66.1971Z" fill="#68E1FD"/>
<path opacity="0.66" d="M79.9737 63.687C99.9306 63.687 116.109 55.5454 116.109 45.5022C116.109 35.4591 99.9306 27.3175 79.9737 27.3175C60.0167 27.3175 43.8384 35.4591 43.8384 45.5022C43.8384 55.5454 60.0167 63.687 79.9737 63.687Z" fill="#093E3E"/>
<path d="M73.8886 38.6747C72.121 40.1772 70.0749 40.6102 68.1437 39.638C69.2706 39.722 70.4726 39.7132 71.4581 39.1961C72.7308 38.5067 73.1948 37.1059 73.9196 35.9613C75.0022 34.2467 76.4429 32.9077 78.5331 32.7221C78.6612 32.7093 78.7905 32.7229 78.9132 32.7619C78.9408 32.6161 78.9555 32.4683 78.9574 32.3199C78.9574 29.2973 75.864 33.0093 74.6664 31.034C74.5344 30.8174 74.4514 30.5746 74.4233 30.3225C74.2377 30.7644 74.061 31.2063 73.8842 31.6482C72.9076 32.753 72.1165 34.0213 71.0869 35.1835C70.2949 36.1047 69.2872 36.8156 68.1537 37.2528C67.0203 37.69 65.7962 37.8399 64.5908 37.6892C65.9608 37.5807 67.2833 37.1376 68.4422 36.3986C69.601 35.6597 70.5608 34.6477 71.2371 33.4512C72.6822 31.087 73.0578 28.2897 74.8299 26.0978C74.897 26.0155 74.9777 25.9452 75.0685 25.8901C74.9011 25.6899 74.7062 25.5143 74.4896 25.3686C72.0061 23.601 71.3034 28.7846 69.96 27.7285C69.8025 27.6159 69.6817 27.4596 69.6125 27.2788C69.5434 27.0981 69.529 26.9009 69.5711 26.7121C69.4097 26.9032 69.262 27.1055 69.1292 27.3175C68.2189 28.8465 68.3293 30.6628 67.5604 32.2227C66.3982 34.5693 63.6318 34.503 61.6211 35.7006C62.4607 34.6842 63.6804 34.3483 64.7145 33.4557C66.08 32.2758 66.7164 30.5125 67.1406 28.8112C67.4941 27.397 67.6842 25.8768 68.6785 24.7411C69.0446 24.3361 69.4859 24.006 69.9777 23.7689C69.2529 23.4198 67.8521 23.4773 65.0857 25.7443C64.6964 26.0746 64.2727 26.362 63.8218 26.6016C62.5756 28.8112 61.9172 31.5775 61.5371 33.8887C61.5148 34.0324 61.4588 34.1687 61.3736 34.2865C61.3029 32.6779 61.1217 31.0693 61.3736 29.4652C61.5133 28.5326 61.7246 27.6122 62.0056 26.7121C61.1482 26.2481 60.8036 25.3156 58.974 27.9804C55.8806 32.4525 58.7707 37.4859 58.7707 37.4859C64.4007 44.4107 77.1809 42.1039 77.172 39.1519C77.172 37.3843 76.2882 37.0661 75.5237 36.8098C75.3072 37.1545 75.1039 37.5124 74.8962 37.8704C74.5736 38.1267 74.2466 38.3874 73.8886 38.6747Z" fill="#A9CB1C"/>
<path d="M67.1538 28.8377C66.7119 30.5391 66.0932 32.3023 64.7277 33.4822C63.6936 34.3661 62.4783 34.7108 61.6343 35.7272C63.6406 34.5296 66.4114 34.5959 67.5736 32.2493C68.3425 30.6938 68.2365 28.8775 69.1424 27.3441C69.2752 27.1321 69.4229 26.9298 69.5843 26.7386C69.7478 25.7797 70.91 24.7235 70.6803 24.4009C70.5111 24.1429 70.2782 23.9328 70.0041 23.7911C69.5123 24.0281 69.0711 24.3583 68.7049 24.7633C67.7018 25.9034 67.5073 27.4192 67.1538 28.8377Z" fill="#8BAA07"/>
<path d="M71.2371 33.4513C70.5534 34.6313 69.5925 35.6271 68.4375 36.3524C67.2826 37.0777 65.9683 37.5108 64.6084 37.6141C65.8139 37.7649 67.0379 37.6149 68.1714 37.1778C69.3048 36.7406 70.3125 36.0297 71.1045 35.1085C72.1253 33.9639 72.9208 32.7 73.9018 31.5732C74.0786 31.1312 74.2554 30.6893 74.441 30.2474C74.2731 28.7184 76.1689 27.2512 75.0331 25.8548C74.9423 25.9099 74.8616 25.9802 74.7945 26.0625C73.0357 28.2942 72.6601 31.0915 71.2371 33.4513Z" fill="#8BAA07"/>
<path d="M74.4633 35.9746C74.2821 34.7461 78.467 35.2278 78.9354 32.7265C78.8128 32.6876 78.6835 32.674 78.5554 32.6868C76.4696 32.868 75.0201 34.2114 73.9418 35.926C73.2171 37.075 72.7531 38.4714 71.4804 39.1608C70.4949 39.6955 69.2973 39.7044 68.166 39.6027C70.0928 40.5749 72.1432 40.1374 73.9109 38.6394C74.2512 38.3521 74.5782 38.0914 74.9052 37.8616C75.1129 37.5036 75.3162 37.1457 75.5327 36.801C75.0068 36.6596 74.5428 36.5226 74.4633 35.9746Z" fill="#8BAA07"/>
<path d="M61.3869 34.3086C61.4721 34.1908 61.5281 34.0545 61.5504 33.9109C61.9304 31.6041 62.5889 28.8421 63.8351 26.6237C62.9512 27.0656 62.4209 26.9552 62.01 26.7342C61.729 27.6343 61.5177 28.5548 61.378 29.4873C61.135 31.0915 61.3162 32.6956 61.3869 34.3086Z" fill="#8BAA07"/>
<path d="M57.8029 46.3905C57.8029 46.3905 60.8963 35.8774 58.0637 33.3938C55.231 30.9103 55.5403 34.2777 54.0864 33.9639C52.6325 33.6501 53.344 29.1029 50.8781 29.8143C48.4123 30.5258 50.7809 33.3496 49.6938 34.3572C48.6067 35.3648 46.2425 31.4008 44.9609 33.2745C43.6794 35.1482 46.3397 35.4841 45.6503 37.0882C44.9609 38.6924 41.4123 37.0219 41.704 39.6823C41.9957 42.3426 46.0436 40.9638 45.5487 42.6387C45.0537 44.3135 40.7185 43.2308 43.4761 45.9928C46.2336 48.7548 56.623 47.4644 57.8029 46.3905Z" fill="#7AA901"/>
<path d="M57.803 46.3905C57.803 46.3905 57.0297 42.2012 57.2064 40.5794C57.3832 38.9575 57.0915 38.6349 56.8043 37.0882C56.5171 35.5415 55.9205 34.8787 55.9205 35.0643C55.9205 35.2499 56.6099 38.5024 55.5272 39.6823C54.4445 40.8622 53.9495 38.9531 53.3574 37.8395C52.7652 36.7259 51.5279 36.474 51.6251 35.3029C51.7223 34.1318 50.8915 32.7619 50.8915 32.7619C50.8915 32.7619 51.7753 36.5889 51.5809 37.8395C51.3864 39.0901 50.0033 36.8938 49.3139 36.3149C48.7217 35.9154 48.0488 35.6514 47.3429 35.5415C47.3429 35.5415 50.9534 39.289 50.4805 40.0756C50.0077 40.8622 47.1441 38.6968 46.2602 38.6968C45.3764 38.6968 48.134 41.556 48.8233 41.556C49.5127 41.556 52.3012 41.6532 51.9433 42.1481C51.5853 42.6431 48.8499 42.7403 47.8069 43.4297C46.8072 44.0068 45.7623 44.5019 44.6826 44.9101C44.6826 44.9101 48.3947 44.3179 50.4805 44.0263C52.5664 43.7346 53.3662 43.0408 54.1042 44.0263C54.8422 45.0117 57.803 46.3905 57.803 46.3905Z" fill="#759B00"/>
<path d="M112.406 38.7189C112.406 41.0478 111.398 42.8773 109.41 43.7037C110.21 42.8994 110.978 41.9847 111.213 40.8887C111.518 39.4702 110.771 38.2107 110.355 36.9115C109.759 34.9759 109.675 33.005 110.895 31.3036C110.969 31.1987 111.063 31.11 111.173 31.0429C111.077 30.923 110.971 30.8121 110.855 30.7114C108.566 28.7317 109.357 33.522 107.09 33.1331C106.839 33.0924 106.601 32.9974 106.391 32.8547C106.599 33.2966 106.833 33.6944 107.032 34.1142C107.235 35.5769 107.677 37.0043 107.885 38.5333C108.07 39.7333 107.956 40.9604 107.552 42.1054C107.148 43.2504 106.467 44.2776 105.569 45.0957C106.367 43.9963 106.885 42.7199 107.081 41.376C107.276 40.0321 107.143 38.6609 106.692 37.3799C105.839 34.7284 103.952 32.6426 103.439 29.8674C103.422 29.7635 103.422 29.6575 103.439 29.5536C103.187 29.5505 102.936 29.5817 102.693 29.6464C99.745 30.3933 103.214 34.2865 101.544 34.6224C101.356 34.6692 101.159 34.6598 100.977 34.5954C100.794 34.531 100.635 34.4143 100.518 34.26C100.562 34.5041 100.622 34.7447 100.7 34.9803C101.274 36.6684 102.724 37.7644 103.404 39.3597C104.434 41.7681 102.582 43.8274 102.189 46.1342C101.963 44.835 102.498 43.6904 102.494 42.3249C102.494 40.5175 101.561 38.8913 100.54 37.4639C99.692 36.2751 98.6624 35.1438 98.4458 33.6457C98.3764 33.1048 98.4125 32.5556 98.5519 32.0283C97.8139 32.3509 96.9477 33.4513 96.8726 37.0308C96.8714 37.5421 96.8151 38.0518 96.7047 38.551C97.5885 40.9373 99.2457 43.2353 100.753 45.025C100.846 45.1347 100.913 45.2649 100.947 45.4051C99.6788 44.4108 98.3398 43.5048 97.2792 42.2763C96.6621 41.5648 96.1007 40.8069 95.5999 40.0093C94.6896 40.3584 93.7571 40.0093 94.5923 43.1381C95.9932 48.3791 101.663 49.4751 101.663 49.4751C110.585 49.7005 117.13 38.4847 114.889 36.5756C113.564 35.4443 112.728 35.8951 112.039 36.3061C112.163 36.695 112.3 37.0838 112.437 37.4727C112.424 37.8572 112.41 38.277 112.406 38.7189Z" fill="#A9CB1C"/>
<path d="M100.54 37.4551C101.561 38.8824 102.485 40.5131 102.494 42.3161C102.494 43.6816 101.963 44.8262 102.189 46.1254C102.582 43.823 104.434 41.7593 103.404 39.3509C102.724 37.7556 101.27 36.6552 100.7 34.9715C100.622 34.7359 100.562 34.4952 100.518 34.2512C99.8953 33.5043 99.8555 31.9267 99.4578 31.9002C99.1578 31.865 98.8538 31.906 98.574 32.0195C98.4346 32.5468 98.3985 33.096 98.4679 33.6369C98.6668 35.135 99.6964 36.2663 100.54 37.4551Z" fill="#8BAA07"/>
<path d="M106.692 37.3711C107.143 38.6521 107.276 40.0233 107.081 41.3672C106.885 42.711 106.367 43.9874 105.57 45.0869C106.467 44.2688 107.148 43.2415 107.552 42.0965C107.956 40.9515 108.07 39.7244 107.885 38.5244C107.678 37.0043 107.236 35.5769 107.032 34.1053C106.816 33.6855 106.59 33.2701 106.392 32.8459C105.119 31.962 105.238 29.5845 103.44 29.5403C103.422 29.6442 103.422 29.7503 103.44 29.8541C103.939 32.6337 105.835 34.7372 106.692 37.3711Z" fill="#8BAA07"/>
<path d="M110.731 36.5535C109.679 35.8951 112.768 33.0182 111.173 31.0428C111.063 31.1099 110.969 31.1987 110.894 31.3036C109.679 33.0094 109.759 34.9759 110.355 36.9115C110.757 38.2107 111.518 39.4701 111.213 40.8887C110.978 41.9846 110.205 42.9038 109.41 43.7037C111.398 42.8729 112.388 41.0522 112.406 38.7189C112.406 38.277 112.406 37.8572 112.463 37.4594C112.326 37.0706 112.185 36.6817 112.066 36.2928C111.593 36.5756 111.186 36.8584 110.731 36.5535Z" fill="#8BAA07"/>
<path d="M100.952 45.3962C100.918 45.256 100.851 45.1258 100.757 45.0162C99.2503 43.2264 97.5798 40.9329 96.7093 38.5421C96.4795 39.4966 96.0464 39.8325 95.6045 40.0004C96.1053 40.798 96.6667 41.5559 97.2838 42.2674C98.3444 43.4871 99.6834 44.4019 100.952 45.3962Z" fill="#8BAA07"/>
<path d="M98.6008 40.1905C98.6008 40.1905 101.694 29.6774 98.8615 27.1938C96.0288 24.7103 96.3382 28.0776 94.8843 27.7639C93.4304 27.4501 94.1419 22.9028 91.676 23.6143C89.2101 24.3258 91.5788 27.1496 90.4917 28.1572C89.4046 29.1648 87.0403 25.2008 85.7588 27.0745C84.4772 28.9482 87.1375 29.2841 86.4481 30.8882C85.7588 32.4924 82.2102 30.8219 82.5019 33.4823C82.7935 36.1426 86.8415 34.7638 86.3465 36.4387C85.8516 38.1135 81.5164 37.0308 84.2739 39.7928C87.0315 42.5547 97.4253 41.2776 98.6008 40.1905Z" fill="#7AA901"/>
<path d="M98.6004 40.1905C98.6004 40.1905 97.827 36.0012 98.0038 34.3793C98.1806 32.7575 97.8889 32.4349 97.6016 30.8882C97.3144 29.3415 96.7178 28.6787 96.7178 28.8643C96.7178 29.0499 97.4072 32.3023 96.3245 33.4823C95.2418 34.6622 94.7469 32.7531 94.1547 31.6395C93.5626 30.5259 92.3252 30.274 92.4224 29.1029C92.5196 27.9318 91.6888 26.5619 91.6888 26.5619C91.6888 26.5619 92.5727 30.3889 92.3782 31.6395C92.1838 32.8901 90.8006 30.6938 90.1112 30.1149C89.52 29.7176 88.8486 29.4551 88.1447 29.3459C88.1447 29.3459 91.7551 33.0934 91.2823 33.88C90.8094 34.6666 87.9458 32.5012 87.062 32.5012C86.1782 32.5012 88.9357 35.3604 89.6251 35.3604C90.3145 35.3604 93.103 35.4576 92.745 35.9526C92.3871 36.4475 89.6516 36.5447 88.6087 37.2341C87.609 37.8112 86.5641 38.3063 85.4844 38.7145C85.4844 38.7145 89.1964 38.1224 91.2823 37.8307C93.3681 37.539 94.168 36.8452 94.906 37.8307C95.644 38.8162 98.6004 40.1905 98.6004 40.1905Z" fill="#759B00"/>
<path d="M89.1568 62.9048C87.3185 64.341 85.2768 64.699 83.3899 63.6561C84.5168 63.7842 85.7143 63.8151 86.7175 63.3202C88.0167 62.6794 88.5293 61.2962 89.2983 60.1782C90.4428 58.5078 91.9497 57.2174 94.0267 57.1113C94.156 57.1043 94.2854 57.1238 94.4068 57.1688C94.4403 57.0236 94.461 56.8757 94.4686 56.7269C94.5968 53.7042 91.3311 57.3013 90.2307 55.2818C90.1068 55.0604 90.0329 54.8145 90.0142 54.5615C89.8109 55.0034 89.6209 55.4144 89.4264 55.8474C88.41 56.9169 87.5615 58.1498 86.5009 59.259C85.6757 60.1494 84.6431 60.822 83.4951 61.2167C82.347 61.6115 81.1192 61.7162 79.9208 61.5216C81.277 61.4624 82.5985 61.0752 83.7723 60.3933C84.946 59.7114 85.9369 58.755 86.66 57.6063C88.1935 55.2995 88.6663 52.5154 90.5224 50.3942C90.5915 50.3147 90.6737 50.2474 90.7654 50.1954C90.6105 49.9964 90.4291 49.8194 90.2263 49.6695C87.809 47.8223 86.9163 52.9618 85.6127 51.8791C85.4591 51.7611 85.3437 51.6006 85.2808 51.4175C85.218 51.2344 85.2104 51.0368 85.2592 50.8494C85.0984 51.0349 84.9508 51.2312 84.8173 51.4371C83.8539 52.9352 83.8937 54.7515 83.0496 56.2982C81.8034 58.6006 79.037 58.4326 76.9865 59.5551C77.8704 58.5696 79.0945 58.278 80.1595 57.4251C81.5692 56.2982 82.2718 54.5615 82.7579 52.8734C83.1601 51.4725 83.4075 49.9612 84.446 48.8608C84.8244 48.4705 85.2746 48.1569 85.7718 47.9372C85.0603 47.5616 83.6594 47.566 80.8091 49.7314C80.4078 50.0466 79.9737 50.3177 79.5143 50.5401C78.1885 52.7099 77.4285 55.4409 76.96 57.7344C76.9325 57.8761 76.8719 58.0093 76.7833 58.1233C76.7833 56.5103 76.6507 54.9018 76.9556 53.3064C77.1298 52.3801 77.3751 51.4685 77.6892 50.5798C76.8496 50.0849 76.5402 49.1392 74.5958 51.7332C71.361 56.0861 74.039 61.2255 74.039 61.2255C79.4082 68.3536 92.2679 66.5285 92.3651 63.5721C92.4226 61.8044 91.5564 61.4553 90.8052 61.1725C90.5798 61.5084 90.3633 61.8619 90.1379 62.211C89.8462 62.3833 89.506 62.6308 89.1568 62.9048Z" fill="#A9CB1C"/>
<path d="M82.7753 52.8248C82.2892 54.5129 81.5865 56.2496 80.1768 57.3765C79.1118 58.2294 77.8833 58.5211 77.0039 59.5065C79.0544 58.3841 81.8208 58.552 83.067 56.2496C83.8933 54.7206 83.8536 52.9043 84.8346 51.3886C84.9681 51.1827 85.1158 50.9863 85.2765 50.8008C85.4754 49.8507 86.6862 48.8387 86.4564 48.5073C86.2963 48.244 86.0711 48.0263 85.8024 47.8754C85.3052 48.0951 84.855 48.4087 84.4767 48.799C83.4249 49.9126 83.1686 51.4416 82.7753 52.8248Z" fill="#8BAA07"/>
<path d="M86.6601 57.5842C85.9369 58.7329 84.946 59.6893 83.7723 60.3712C82.5986 61.0531 81.277 61.4403 79.9209 61.4995C81.1192 61.6941 82.3471 61.5894 83.4951 61.1946C84.6432 60.7999 85.6758 60.1273 86.501 59.2369C87.5616 58.1321 88.4056 56.8948 89.4265 55.8254C89.6209 55.3834 89.8109 54.968 90.0142 54.5394C89.9037 53.0059 91.8526 51.6095 90.7699 50.1733C90.6782 50.2253 90.596 50.2926 90.5268 50.3721C88.6708 52.4977 88.1935 55.2774 86.6601 57.5842Z" fill="#8BAA07"/>
<path d="M89.7975 60.2445C89.6605 59.0116 93.8277 59.648 94.389 57.1511C94.2676 57.1062 94.1382 57.0866 94.0089 57.0937C91.9187 57.1998 90.425 58.4857 89.2805 60.1606C88.5115 61.283 87.9989 62.6618 86.6997 63.3026C85.6965 63.7975 84.4901 63.7445 83.3721 63.6384C85.259 64.6814 87.3051 64.319 89.139 62.8872C89.4881 62.6132 89.824 62.3657 90.1643 62.1492C90.3852 61.8001 90.6062 61.4465 90.8316 61.1107C90.3322 60.9295 89.8726 60.7793 89.7975 60.2445Z" fill="#8BAA07"/>
<path d="M76.8051 58.0703C76.8937 57.9564 76.9543 57.8231 76.9818 57.6814C77.4458 55.3879 78.2059 52.6569 79.5361 50.4871C78.6523 50.898 78.1131 50.7699 77.7066 50.5268C77.3925 51.4155 77.1472 52.3271 76.973 53.2534C76.6769 54.8532 76.7962 56.4662 76.8051 58.0703Z" fill="#8BAA07"/>
<path d="M81.0524 49.6165C81.0524 49.6165 84.1458 39.1033 81.3132 36.6198C78.4805 34.1362 78.7898 37.5036 77.3359 37.1899C75.882 36.8761 76.5935 32.3288 74.1276 33.0403C71.6618 33.7518 74.0304 36.5756 72.9433 37.5832C71.8562 38.5907 69.492 34.6268 68.2104 36.5005C66.9289 38.3742 69.5892 38.71 68.8998 40.3142C68.2104 41.9183 64.6619 40.2479 64.9535 42.9082C65.2452 45.5685 69.2931 44.1898 68.7982 45.8646C68.3032 47.5395 63.9681 46.4568 66.7256 49.2187C69.4831 51.9807 79.8725 50.6992 81.0524 49.6165Z" fill="#7AA901"/>
<path d="M81.0521 49.6165C81.0521 49.6165 80.2787 45.4271 80.4555 43.8053C80.6322 42.1835 80.3406 41.8609 80.0533 40.3142C79.7661 38.7675 79.1695 38.1046 79.1695 38.2902C79.1695 38.4758 79.8589 41.7283 78.7762 42.9082C77.6935 44.0881 77.1986 42.1791 76.6064 41.0654C76.0142 39.9518 74.7769 39.6999 74.8741 38.5289C74.9713 37.3578 74.1405 35.9879 74.1405 35.9879C74.1405 35.9879 75.0244 39.8148 74.8299 41.0654C74.6355 42.3161 73.2523 40.1197 72.5629 39.5408C71.9707 39.1414 71.2978 38.8773 70.592 38.7675C70.592 38.7675 74.2024 42.5149 73.7295 43.3015C73.2567 44.0881 70.3931 41.9228 69.5093 41.9228C68.6254 41.9228 71.383 44.7819 72.0724 44.7819C72.7618 44.7819 75.5502 44.8792 75.1923 45.3741C74.8343 45.869 72.0989 45.9663 71.056 46.6556C70.0562 47.2327 69.0114 47.7278 67.9316 48.1361C67.9316 48.1361 71.6437 47.5439 73.7295 47.2522C75.8154 46.9606 76.6152 46.2668 77.3532 47.2522C78.0912 48.2377 81.0521 49.6165 81.0521 49.6165Z" fill="#759B00"/>
<path d="M84.8747 34.4456C87.1903 34.1849 89.1215 34.9538 90.1777 36.8275C89.2938 36.1293 88.2818 35.4708 87.1682 35.3692C85.7276 35.2366 84.5654 36.1425 83.3236 36.6949C81.472 37.5169 79.5275 37.8307 77.6892 36.8275C77.5761 36.7658 77.4769 36.6815 77.3975 36.58C77.2896 36.6903 77.192 36.8101 77.1058 36.938C75.4133 39.4436 80.0755 38.0914 79.9562 40.3893C79.945 40.6422 79.8786 40.8896 79.7617 41.1141C80.155 40.8578 80.5439 40.5926 80.9372 40.3275C82.3646 39.9518 83.7301 39.342 85.215 38.9575C86.385 38.6317 87.6175 38.6004 88.8026 38.8664C89.9877 39.1324 91.0886 39.6875 92.0072 40.4821C90.8213 39.8217 89.4931 39.4587 88.1362 39.424C86.7793 39.3894 85.4342 39.6842 84.2162 40.2833C81.7017 41.4455 79.8369 43.5623 77.1456 44.4019C77.0455 44.4324 76.9409 44.4459 76.8363 44.4417C76.8633 44.6918 76.9242 44.9371 77.0175 45.1708C78.109 48.0124 81.5648 44.1014 82.0951 45.7232C82.1637 45.9039 82.1776 46.1008 82.1352 46.2894C82.0928 46.478 81.9958 46.6499 81.8564 46.7838C82.0936 46.7118 82.3254 46.6232 82.5502 46.5187C84.1544 45.7498 85.0736 44.181 86.5805 43.3148C88.8519 41.9891 91.1145 43.6021 93.4522 43.717C92.1884 44.097 90.9864 43.717 89.6341 43.8672C87.8444 44.0882 86.333 45.1929 85.0338 46.3817C83.9555 47.3627 82.9524 48.5206 81.4985 48.9139C80.9701 49.0474 80.4209 49.0774 79.8811 49.0022C80.292 49.696 81.4852 50.4252 85.047 50.0761C85.5552 50.0211 86.0679 50.0211 86.5761 50.0761C88.8431 48.9271 90.9245 46.9827 92.5242 45.2857C92.623 45.179 92.7456 45.0972 92.8822 45.0471C92.0469 46.4259 91.3045 47.8621 90.2307 49.0597C89.5978 49.7564 88.9123 50.4036 88.1802 50.9953C88.6221 51.8791 88.4056 52.8248 91.4062 51.6272C96.444 49.6165 96.855 43.8363 96.855 43.8363C95.9844 34.9317 84.0527 29.7525 82.4353 32.2139C81.4675 33.6723 81.9934 34.4235 82.506 35.0731C82.8772 34.9052 83.244 34.7196 83.6152 34.5384C84.0174 34.5296 84.4328 34.4942 84.8747 34.4456Z" fill="#A9CB1C"/>
<path d="M85.0296 46.3773C86.3288 45.1974 87.8357 44.0838 89.6299 43.8628C90.9821 43.6949 92.1841 44.0926 93.448 43.7125C91.1147 43.5932 88.8477 42.0023 86.5763 43.3104C85.0693 44.1942 84.1546 45.7453 82.546 46.5143C82.3212 46.6188 82.0894 46.7074 81.8522 46.7794C81.1849 47.4865 79.6426 47.7119 79.6426 48.1052C79.6404 48.4143 79.718 48.7187 79.868 48.989C80.4078 49.0641 80.957 49.0341 81.4854 48.9006C82.9481 48.5161 83.9469 47.3583 85.0296 46.3773Z" fill="#8BAA07"/>
<path d="M84.2161 40.2833C85.4341 39.6842 86.7792 39.3894 88.1361 39.424C89.493 39.4587 90.8212 39.8217 92.0071 40.4821C91.0885 39.6875 89.9876 39.1324 88.8025 38.8664C87.6174 38.6004 86.3849 38.6317 85.2149 38.9575C83.73 39.342 82.3645 39.9518 80.9371 40.3275C80.5482 40.5926 80.1594 40.8578 79.7616 41.1141C79.0502 42.4796 76.6682 42.6475 76.8318 44.4373C76.9364 44.4415 77.0409 44.428 77.1411 44.3975C79.8368 43.5623 81.6972 41.4455 84.2161 40.2833Z" fill="#8BAA07"/>
<path d="M82.9258 36.3635C82.3955 37.486 79.1828 34.7594 77.4019 36.5801C77.4812 36.6816 77.5805 36.7658 77.6935 36.8275C79.5319 37.8351 81.4763 37.5169 83.3279 36.695C84.5697 36.1426 85.7319 35.2366 87.1726 35.3692C88.2862 35.4709 89.2893 36.1293 90.182 36.8275C89.1214 34.9494 87.1902 34.1761 84.879 34.4456C84.4371 34.4942 84.0217 34.5296 83.6196 34.5384C83.2484 34.7196 82.8772 34.9052 82.5104 35.0731C82.8418 35.5327 83.1688 35.8818 82.9258 36.3635Z" fill="#8BAA07"/>
<path d="M92.8642 45.0294C92.7277 45.0795 92.605 45.1613 92.5063 45.268C90.9065 46.9783 88.8295 48.905 86.5581 50.0584C87.5347 50.1733 87.9192 50.5666 88.1357 50.982C88.8678 50.3903 89.5533 49.7432 90.1862 49.0464C91.2822 47.8444 92.0069 46.4082 92.8642 45.0294Z" fill="#8BAA07"/>
<path d="M98.3086 62.2022C98.3086 62.2022 108.658 58.6006 109.029 54.8532C109.401 51.1057 106.855 53.302 106.259 51.9675C105.662 50.6329 109.763 48.5426 107.766 46.9429C105.768 45.3432 104.818 48.9315 103.382 48.6222C101.946 48.3128 103.78 44.0926 101.508 44.1412C99.2366 44.1898 100.518 46.5452 98.808 46.9208C97.0978 47.2964 96.3951 43.4341 94.3888 45.2239C92.3826 47.0136 95.8693 49.4972 94.2209 50.0849C92.5726 50.6726 90.9287 46.501 90.2879 50.3501C89.6471 54.1991 96.7398 61.8752 98.3086 62.2022Z" fill="#7AA901"/>
<path d="M98.3087 62.2021C98.3087 62.2021 101.265 59.1353 102.688 58.3354C104.111 57.5355 104.204 57.1113 105.291 55.9756C106.378 54.8398 106.573 53.9781 106.427 54.0842C106.281 54.1902 104.032 56.6429 102.449 56.4528C100.867 56.2628 102.122 54.747 102.688 53.6157C103.254 52.4844 102.737 51.3311 103.744 50.7301C104.752 50.1291 105.384 48.6575 105.384 48.6575C105.384 48.6575 102.79 51.605 101.654 52.1928C100.518 52.7805 101.508 50.3588 101.574 49.4618C101.555 48.7471 101.379 48.0455 101.057 47.4069C101.057 47.4069 100.112 52.5242 99.1925 52.5993C98.2734 52.6745 98.375 49.064 97.8668 48.3614C97.3586 47.6588 96.6339 51.5476 97.0316 52.1088C97.4293 52.6701 98.976 54.9945 98.3573 54.9901C97.7387 54.9857 96.0815 52.8247 94.906 52.3696C93.8547 51.8924 92.8438 51.3308 91.8833 50.6903C91.8833 50.6903 94.5348 53.3639 95.9798 54.8929C97.4249 56.4219 98.4634 56.6605 98.0878 57.8404C97.7121 59.0204 98.3087 62.2021 98.3087 62.2021Z" fill="#759B00"/>
<path d="M98.6004 43.8362C100.179 43.8362 101.46 42.204 101.46 40.1905C101.46 38.177 100.179 36.5447 98.6004 36.5447C97.0213 36.5447 95.7412 38.177 95.7412 40.1905C95.7412 42.204 97.0213 43.8362 98.6004 43.8362Z" fill="#362F44"/>
<path d="M100.231 39.068C100.15 38.6165 99.9429 38.1969 99.6345 37.8572C99.5949 37.8109 99.5461 37.7733 99.4913 37.7468C99.4365 37.7203 99.3768 37.7054 99.3159 37.703C99.255 37.7007 99.1944 37.7109 99.1376 37.7331C99.0809 37.7554 99.0294 37.7891 98.9864 37.8321C98.9433 37.8752 98.9096 37.9267 98.8874 37.9834C98.8652 38.0401 98.8549 38.1008 98.8573 38.1617C98.8596 38.2225 98.8745 38.2822 98.901 38.3371C98.9276 38.3919 98.9651 38.4406 99.0114 38.4803C99.211 38.7132 99.3398 38.9984 99.3826 39.3022C99.3979 39.3582 99.4242 39.4107 99.4598 39.4566C99.4954 39.5025 99.5398 39.5409 99.5903 39.5696C99.6407 39.5983 99.6964 39.6168 99.754 39.624C99.8117 39.6312 99.8702 39.627 99.9262 39.6116C100.038 39.5796 100.134 39.5045 100.191 39.4027C100.248 39.3008 100.262 39.1805 100.231 39.068Z" fill="#776F93"/>
<path d="M100.01 39.9518C99.8931 39.9518 99.7807 39.9983 99.6978 40.0812C99.6149 40.1641 99.5684 40.2765 99.5684 40.3937C99.5684 40.5109 99.6149 40.6233 99.6978 40.7062C99.7807 40.7891 99.8931 40.8356 100.01 40.8356C100.127 40.8356 100.24 40.7891 100.323 40.7062C100.406 40.6233 100.452 40.5109 100.452 40.3937C100.452 40.2765 100.406 40.1641 100.323 40.0812C100.24 39.9983 100.127 39.9518 100.01 39.9518Z" fill="#776F93"/>
<path d="M80.4099 55.5251C82.4096 55.2892 83.8806 53.8266 83.6955 52.2584C83.5105 50.6902 81.7394 49.6102 79.7398 49.8462C77.7402 50.0822 76.2692 51.5447 76.4542 53.1129C76.6393 54.6811 78.4103 55.7611 80.4099 55.5251Z" fill="#362F44"/>
<path d="M81.379 54.1638C81.8174 54.03 82.2093 53.7758 82.5103 53.4302C82.583 53.3382 82.6161 53.2211 82.6025 53.1047C82.5888 52.9882 82.5294 52.882 82.4374 52.8093C82.3454 52.7367 82.2283 52.7035 82.1119 52.7172C81.9954 52.7309 81.8892 52.7902 81.8165 52.8822C81.6055 53.0994 81.3374 53.2526 81.0432 53.3241C80.9349 53.3683 80.8485 53.4535 80.803 53.5612C80.7574 53.6689 80.7564 53.7902 80.8001 53.8986C80.8198 53.9547 80.8506 54.0063 80.8906 54.0502C80.9306 54.0942 80.9791 54.1296 81.0332 54.1543C81.0872 54.1791 81.1457 54.1927 81.2052 54.1943C81.2646 54.1959 81.3237 54.1856 81.379 54.1638Z" fill="#776F93"/>
<path d="M80.4556 54.0533C80.4421 53.9361 80.3826 53.8291 80.2902 53.7557C80.1978 53.6824 80.0801 53.6487 79.9629 53.6622C79.8457 53.6757 79.7386 53.7352 79.6653 53.8276C79.5919 53.92 79.5583 54.0377 79.5718 54.155C79.5852 54.2722 79.6447 54.3792 79.7371 54.4526C79.8295 54.5259 79.9473 54.5595 80.0645 54.546C80.1817 54.5326 80.2887 54.4731 80.3621 54.3807C80.4354 54.2883 80.4691 54.1705 80.4556 54.0533Z" fill="#776F93"/>
<path d="M81.5418 35.1025C82.4456 33.3032 82.0343 31.27 80.6232 30.5612C79.2121 29.8525 77.3356 30.7365 76.4318 32.5358C75.5281 34.3351 75.9393 36.3683 77.3504 37.077C78.7615 37.7858 80.638 36.9018 81.5418 35.1025Z" fill="#362F44"/>
<path d="M80.9595 33.5441C81.0864 33.1023 81.0864 32.6336 80.9595 32.1918C80.9226 32.0805 80.8429 31.9884 80.7381 31.9357C80.6332 31.8831 80.5118 31.8743 80.4004 31.9112C80.2891 31.9481 80.197 32.0278 80.1444 32.1326C80.0917 32.2374 80.0829 32.3589 80.1198 32.4702C80.1895 32.7628 80.1757 33.069 80.0801 33.3541C80.0685 33.4112 80.0684 33.4701 80.0797 33.5274C80.091 33.5846 80.1135 33.639 80.146 33.6875C80.1784 33.736 80.2202 33.7776 80.2688 33.8098C80.3174 33.8421 80.3719 33.8644 80.4292 33.8755C80.4858 33.8886 80.5444 33.8904 80.6017 33.8808C80.6589 33.8713 80.7138 33.8505 80.763 33.8197C80.8123 33.7889 80.855 33.7488 80.8887 33.7015C80.9224 33.6542 80.9464 33.6007 80.9595 33.5441Z" fill="#776F93"/>
<path d="M80.3364 34.2556C80.2844 34.2294 80.2279 34.2138 80.1699 34.2096C80.1119 34.2053 80.0537 34.2125 79.9985 34.2308C79.9433 34.249 79.8922 34.278 79.8482 34.316C79.8042 34.354 79.7681 34.4003 79.742 34.4522C79.7159 34.5041 79.7003 34.5607 79.696 34.6187C79.6918 34.6767 79.699 34.7349 79.7172 34.7901C79.7355 34.8453 79.7644 34.8964 79.8024 34.9404C79.8404 34.9844 79.8867 35.0205 79.9387 35.0466C80.0436 35.0993 80.1651 35.1082 80.2766 35.0714C80.388 35.0345 80.4803 34.9548 80.533 34.8499C80.5858 34.745 80.5947 34.6235 80.5578 34.512C80.5209 34.4005 80.4413 34.3083 80.3364 34.2556Z" fill="#776F93"/>
<path d="M63.8395 50.0408C63.6716 47.8533 62.0321 47.0446 60.2512 46.2491C59.1155 45.7409 58.3775 45.3653 58.077 44.0396C57.9356 43.4032 58.077 42.7138 57.8781 42.0863C57.7727 41.6138 57.5639 41.1706 57.2666 40.7886C56.9694 40.4065 56.5911 40.0951 56.1591 39.8767C54.2854 38.962 52.2305 40.0623 51.6737 42.0156C51.2317 43.5711 51.9697 45.1355 50.3744 46.3022C49.5657 46.8943 48.3858 46.7706 47.5771 47.4909C46.0525 48.8476 46.4105 51.2825 47.3517 52.869C48.1085 54.1425 49.2971 55.1021 50.7014 55.5735H50.7633C51.5064 55.8198 52.288 55.9291 53.0701 55.8961C53.1813 55.8908 53.2906 55.8654 53.3927 55.821C57.8604 56.0464 64.2461 55.3349 63.8395 50.0408ZM57.8163 53.9163C55.7055 54.2141 53.5634 54.2141 51.4527 53.9163C49.7823 53.4037 48.2577 52.047 48.3107 50.191C48.377 47.9814 50.6838 48.3924 51.9653 47.4511C52.8978 46.7662 53.1983 45.8072 53.2911 44.698C53.3529 44.0175 53.101 43.0983 53.3706 42.4885C55.4859 41.6046 56.4478 41.9523 56.2563 43.5314C56.2572 43.8169 56.2793 44.102 56.3226 44.3843C56.4232 45.356 56.8988 46.2501 57.6483 46.8767C58.9034 47.8842 61.4311 47.9682 61.9835 49.7093C62.8055 52.2503 59.6723 53.5982 57.8163 53.9163Z" fill="#F7C806"/>
<path d="M69.4695 48.5736C69.3722 50.9025 68.3249 52.6922 66.3054 53.4567C67.1317 52.6834 67.9316 51.7907 68.2056 50.7036C68.5591 49.2983 67.8388 48.0124 67.4808 46.6999C66.9505 44.7466 66.9329 42.7757 68.2056 41.1097C68.2832 41.007 68.3809 40.9213 68.4928 40.8578C68.4004 40.7337 68.2969 40.6183 68.1835 40.5131C65.9739 38.4582 66.5882 43.275 64.3388 42.8066C64.0895 42.7567 63.8542 42.6526 63.6495 42.5017C63.8439 42.9436 64.0472 43.3546 64.246 43.7788C64.4007 45.246 64.794 46.691 64.9531 48.198C65.1003 49.4097 64.944 50.639 64.4981 51.7753C64.0522 52.9115 63.3308 53.9191 62.3988 54.7073C63.2354 53.6346 63.7987 52.3747 64.0404 51.036C64.2821 49.6974 64.195 48.32 63.7864 47.0225C63.0219 44.371 61.2101 42.1968 60.7903 39.4083C60.7726 39.3045 60.7726 39.1984 60.7903 39.0945C60.5393 39.0841 60.288 39.1079 60.0434 39.1652C57.0694 39.8104 60.4102 43.8186 58.7177 44.1014C58.5286 44.1417 58.3318 44.1255 58.1519 44.0548C57.9719 43.984 57.8168 43.862 57.7057 43.7037C57.7418 43.9487 57.7949 44.1909 57.8648 44.4284C58.3818 46.1342 59.7915 47.2788 60.4191 48.8962C61.3648 51.34 59.4469 53.3153 58.9784 55.6265C58.7972 54.3008 59.3717 53.1916 59.4203 51.8305C59.4734 50.0275 58.6028 48.3659 57.6527 46.9032C56.8484 45.6879 55.8541 44.5212 55.6862 43.0187C55.6346 42.4758 55.6886 41.9281 55.8453 41.4057C55.0984 41.7062 54.1969 42.7757 54.0025 46.3463C53.9833 46.8566 53.9092 47.3633 53.7815 47.8577C54.5725 50.275 56.1679 52.6215 57.6129 54.4643C57.7031 54.5778 57.7652 54.7111 57.7941 54.8532C56.5612 53.8191 55.2531 52.8646 54.2323 51.6051C53.6387 50.8726 53.1024 50.0955 52.6281 49.2806C51.7045 49.5988 50.7853 49.2232 51.5145 52.374C52.7386 57.677 58.3907 58.9453 58.3907 58.9453C67.2997 59.4668 74.2289 48.4808 72.0458 46.4966C70.751 45.3211 69.907 45.7409 69.2087 46.1298C69.3192 46.5231 69.4474 46.912 69.5711 47.3097C69.5004 47.7119 69.4695 48.1317 69.4695 48.5736Z" fill="#A9CB1C"/>
<path d="M57.6393 46.912C58.6115 48.3747 59.4776 50.0363 59.4069 51.8393C59.3672 53.2048 58.7927 54.3273 58.965 55.6353C59.4379 53.3462 61.3558 51.3488 60.4057 48.905C59.7781 47.2876 58.364 46.1386 57.8514 44.4372C57.7815 44.1997 57.7284 43.9575 57.6923 43.7125C57.0957 42.9436 57.109 41.366 56.7113 41.3262C56.4139 41.2811 56.11 41.3115 55.8274 41.4146C55.6708 41.9369 55.6168 42.4847 55.6683 43.0275C55.8407 44.5301 56.8306 45.6967 57.6393 46.912Z" fill="#8BAA07"/>
<path d="M63.7868 47.0224C64.1953 48.32 64.2825 49.6973 64.0408 51.036C63.7991 52.3747 63.2357 53.6346 62.3992 54.7073C63.324 53.9198 64.0395 52.9158 64.4821 51.7846C64.9247 50.6535 65.0806 49.4304 64.9358 48.2244C64.7811 46.6998 64.3878 45.2548 64.2287 43.8053C64.0254 43.3634 63.8222 42.9568 63.6321 42.5282C62.3904 41.6178 62.5892 39.2315 60.7906 39.1254C60.7729 39.2293 60.7729 39.3354 60.7906 39.4392C61.2105 42.21 63.0223 44.3709 63.7868 47.0224Z" fill="#8BAA07"/>
<path d="M67.852 46.3552C66.8267 45.6614 70.0041 42.8994 68.4751 40.8622C68.3632 40.9257 68.2654 41.0114 68.1878 41.1141C66.9151 42.7757 66.9284 44.7466 67.4631 46.7043C67.821 48.03 68.5369 49.2983 68.1878 50.708C67.9183 51.7951 67.114 52.6878 66.2876 53.4611C68.3027 52.6966 69.3545 50.9069 69.4517 48.578C69.4517 48.1361 69.5003 47.7163 69.5489 47.3185C69.4252 46.9252 69.297 46.5319 69.1866 46.1386C68.7093 46.4038 68.2983 46.6557 67.852 46.3552Z" fill="#8BAA07"/>
<path d="M57.7807 54.862C57.7518 54.7199 57.6898 54.5866 57.5995 54.4731C56.1545 52.6348 54.5636 50.2838 53.7681 47.8665C53.503 48.8122 53.0611 49.1348 52.6147 49.2851C53.089 50.0999 53.6253 50.877 54.2189 51.6095C55.2353 52.8734 56.5434 53.8235 57.7807 54.862Z" fill="#8BAA07"/>
<path d="M75.8332 61.367C75.8332 61.367 78.9266 50.8538 76.0939 48.3703C73.2613 45.8867 73.5706 49.2541 72.1167 48.9403C70.6628 48.6266 71.3743 44.0793 68.9084 44.7908C66.4425 45.5023 68.8112 48.3261 67.7241 49.3336C66.637 50.3412 64.2727 46.3772 62.9912 48.251C61.7096 50.1247 64.37 50.4605 63.6806 52.0647C62.9912 53.6688 59.4426 51.9984 59.7343 54.6587C60.0259 57.319 64.0739 55.9403 63.5789 57.6151C63.084 59.29 58.7488 58.2073 61.5064 60.9692C64.2639 63.7312 74.6577 62.4541 75.8332 61.367Z" fill="#7AA901"/>
<path d="M75.8333 61.367C75.8333 61.367 75.06 57.1776 75.2367 55.5558C75.4135 53.934 75.1218 53.6114 74.8346 52.0647C74.5473 50.518 73.9508 49.8551 73.9508 50.0407C73.9508 50.2263 74.6401 53.4788 73.5574 54.6587C72.4748 55.8386 71.9798 53.9296 71.3877 52.8159C70.7955 51.7023 69.5581 51.4504 69.6554 50.2793C69.7526 49.1083 68.9218 47.7383 68.9218 47.7383C68.9218 47.7383 69.8056 51.5653 69.6112 52.8159C69.4167 54.0665 68.0335 51.8702 67.3441 51.2913C66.752 50.8919 66.079 50.6278 65.3732 50.518C65.3732 50.518 68.9836 54.2654 68.5108 55.052C68.0379 55.8386 65.1743 53.6732 64.2905 53.6732C63.4067 53.6732 66.1642 56.5324 66.8536 56.5324C67.543 56.5324 70.3315 56.6296 69.9735 57.1246C69.6156 57.6195 66.8801 57.7168 65.8372 58.4061C64.8375 58.9832 63.7926 59.4783 62.7129 59.8866C62.7129 59.8866 66.425 59.2944 68.5108 59.0027C70.5966 58.7111 71.3965 58.0173 72.1345 59.0027C72.8725 59.9882 75.8333 61.367 75.8333 61.367Z" fill="#759B00"/>
<path d="M106.643 37.3843C104.495 37.8262 103.908 39.5673 103.351 41.4366C102.993 42.6298 102.723 43.412 101.433 43.8804C100.819 44.1014 100.107 44.0749 99.5239 44.3223C99.0733 44.4912 98.6654 44.7574 98.3293 45.1019C97.9932 45.4464 97.7372 45.8607 97.5795 46.3154C96.921 48.2907 98.2777 50.1865 100.284 50.4826C101.884 50.7213 103.338 49.7844 104.703 51.2118C105.397 51.9365 105.423 53.1208 106.245 53.8323C107.788 55.1581 110.156 54.4952 111.606 53.3506C112.77 52.4347 113.566 51.1317 113.851 49.6783C113.851 49.6783 113.851 49.6386 113.851 49.6165C113.992 48.8466 113.992 48.0575 113.851 47.2876C113.832 47.1769 113.793 47.0705 113.736 46.9738C113.378 42.5238 111.84 36.2884 106.643 37.3843ZM111.27 42.8508C111.847 44.9042 112.132 47.0284 112.118 49.1613C111.827 50.8848 110.682 52.5729 108.835 52.7629C106.648 52.9838 106.74 50.6461 105.64 49.4972C104.84 48.6619 103.872 48.4896 102.741 48.5382C102.06 48.5691 101.181 48.9359 100.531 48.7459C99.3737 46.7632 99.5931 45.7644 101.19 45.7497C101.474 45.7118 101.754 45.6527 102.03 45.573C102.983 45.3421 103.808 44.7473 104.328 43.9158C105.163 42.5414 104.915 40.0225 106.572 39.2492C108.968 38.1179 110.718 41.0478 111.27 42.8508Z" fill="#F7C806"/>
<path d="M86.2359 38.3433C87.6942 36.7038 87.1197 34.9627 86.479 33.1243C86.037 31.9532 85.8117 31.1622 86.5718 30.0309C86.9341 29.4873 87.5086 29.1029 87.8401 28.5328C88.1028 28.1297 88.2735 27.6736 88.34 27.1969C88.4064 26.7203 88.367 26.2349 88.2245 25.7753C87.5837 23.7911 85.3653 23.0752 83.5712 24.0076C82.1438 24.7677 81.5295 26.3851 79.5939 26.0448C78.6041 25.8725 77.8793 24.9356 76.7966 24.8517C74.7638 24.6926 73.2613 26.6414 72.7664 28.4223C72.3747 29.8501 72.5079 31.371 73.142 32.7089L73.1685 32.7663C73.5075 33.4716 73.9717 34.1094 74.5385 34.6489C74.6195 34.7257 74.7138 34.7871 74.8169 34.8301C77.7644 38.1842 82.705 42.3073 86.2359 38.3433ZM79.2669 36.6905C77.5873 35.3801 76.0997 33.8405 74.8478 32.1167C74.0568 30.5568 73.964 28.5196 75.356 27.2557C76.9822 25.8106 78.308 27.7285 79.8591 28.0202C80.9992 28.2191 81.8963 27.7683 82.7625 27.0701C83.2928 26.6282 83.7833 25.8239 84.4196 25.5897C86.529 26.4971 86.9459 27.431 85.6703 28.3914C85.4661 28.5906 85.277 28.8048 85.1046 29.0322C84.4686 29.7804 84.1512 30.7482 84.2208 31.7278C84.3666 33.332 86.0591 35.2101 85.1842 36.8187C83.9291 39.1299 80.7871 37.8086 79.2713 36.6861L79.2669 36.6905Z" fill="#F7C806"/>
<path d="M98.2779 57.266C98.4502 55.0786 96.9521 54.0268 95.317 52.9618C94.2741 52.2812 93.6024 51.804 93.514 50.4296C93.4743 49.78 93.6996 49.1039 93.6201 48.4675C93.5859 47.9873 93.4462 47.5204 93.2109 47.1003C92.9756 46.6802 92.6506 46.3172 92.259 46.037C90.5488 44.8438 88.3481 45.5951 87.4952 47.4555C86.8146 48.9227 87.3052 50.5843 85.5463 51.4902C84.6625 51.9321 83.5091 51.6449 82.5988 52.2282C80.8841 53.3286 80.8576 55.7945 81.5426 57.5091C82.093 58.8843 83.1185 60.0164 84.4327 60.6997L84.4902 60.7306C85.1801 61.0869 85.9286 61.3159 86.6997 61.4068C86.8106 61.4196 86.9229 61.4121 87.0312 61.3847C91.4415 62.2685 97.858 62.5602 98.2779 57.266ZM91.7243 60.1606C89.5917 60.1341 87.4734 59.8084 85.4314 59.1928C83.8582 58.4283 82.5634 56.8506 82.9037 55.0255C83.3058 52.8646 85.5287 53.6158 86.9384 52.8822C87.968 52.352 88.4099 51.4504 88.6795 50.3722C88.843 49.7093 88.7414 48.7636 89.1214 48.1891C91.3487 47.6382 92.2443 48.1302 91.8083 49.6651C91.765 49.9474 91.7428 50.2325 91.742 50.518C91.6999 51.4905 92.0374 52.4412 92.6832 53.1695C93.7659 54.3582 96.2539 54.8355 96.5279 56.6429C96.9168 59.2856 93.6113 60.1341 91.7287 60.1561L91.7243 60.1606Z" fill="#D34040"/>
<path d="M79.5538 40.6147C78.343 38.7852 76.5179 38.8736 74.5735 39.0415C73.3317 39.1475 72.5053 39.1829 71.595 38.1576C71.1531 37.6671 70.9365 37.0175 70.4725 36.5447C70.1501 36.1873 69.7529 35.9054 69.3091 35.719C68.8653 35.5326 68.3859 35.4464 67.905 35.4664C65.8236 35.5769 64.5597 37.539 65.0237 39.5143C65.3905 41.092 66.7914 42.0951 65.9694 43.8937C65.5496 44.804 64.4581 45.268 64.1001 46.2889C63.424 48.2112 64.9221 50.1689 66.5174 51.1013C67.7975 51.8474 69.3029 52.1092 70.7598 51.8393H70.8216C71.5943 51.6945 72.3341 51.4099 73.0047 50.9997C73.0999 50.9416 73.1837 50.8668 73.2522 50.7787C77.2426 48.7636 82.4793 45.0427 79.5538 40.6147ZM76.1688 46.9252C74.4709 48.2109 72.601 49.2522 70.6139 50.0186C68.9037 50.381 66.9151 49.9391 66.0578 48.2863C65.0458 46.3331 67.2554 45.5597 67.9227 44.1146C68.4044 43.0629 68.2011 42.0818 67.7503 41.0654C67.4719 40.4423 66.8091 39.7397 66.7428 39.0812C68.1598 37.2753 69.1689 37.1118 69.7699 38.5907C69.9096 38.8393 70.0677 39.0771 70.2427 39.3022C70.8077 40.1043 71.6643 40.6532 72.6291 40.8312C74.2155 41.1008 76.4693 39.9474 77.795 41.2024C79.7218 43.0452 77.6404 45.7453 76.1688 46.9252Z" fill="#D34040"/>
<path d="M65.807 48.1273C67.1356 47.274 67.3307 45.2088 66.2426 43.5146C65.1545 41.8204 63.1954 41.1387 61.8667 41.992C60.538 42.8454 60.343 44.9105 61.4311 46.6047C62.5192 48.2989 64.4783 48.9806 65.807 48.1273Z" fill="#362F44"/>
<path d="M64.6086 43.2396C64.2959 42.9028 63.8947 42.6609 63.4508 42.5414C63.3928 42.5289 63.3329 42.528 63.2745 42.5387C63.2161 42.5494 63.1604 42.5714 63.1105 42.6037C63.0607 42.6359 63.0176 42.6776 62.9839 42.7264C62.9502 42.7753 62.9264 42.8303 62.9139 42.8883C62.9014 42.9463 62.9005 43.0063 62.9112 43.0647C62.9219 43.123 62.9439 43.1788 62.9762 43.2286C63.0084 43.2785 63.0501 43.3215 63.0989 43.3552C63.1478 43.389 63.2028 43.4128 63.2608 43.4252C63.5543 43.5134 63.8165 43.6836 64.0165 43.9158C64.1039 43.9935 64.2185 44.0335 64.3353 44.0269C64.4521 44.0203 64.5616 43.9676 64.6396 43.8804C64.6811 43.8371 64.7134 43.7857 64.7344 43.7295C64.7554 43.6732 64.7648 43.6133 64.7619 43.5534C64.759 43.4934 64.7439 43.4347 64.7176 43.3807C64.6912 43.3268 64.6542 43.2788 64.6086 43.2396Z" fill="#776F93"/>
<path d="M64.9004 44.1191C64.8086 44.1852 64.7457 44.2841 64.7246 44.3952C64.7034 44.5064 64.7258 44.6214 64.787 44.7166C64.8482 44.8118 64.9435 44.8799 65.0534 44.9069C65.1633 44.9338 65.2794 44.9176 65.3777 44.8615C65.4695 44.7954 65.5324 44.6965 65.5535 44.5854C65.5746 44.4742 65.5523 44.3592 65.4911 44.264C65.4299 44.1688 65.3345 44.1007 65.2246 44.0738C65.1147 44.0468 64.9987 44.063 64.9004 44.1191Z" fill="#776F93"/>
<path d="M91.7906 39.0105C91.2383 38.467 89.9876 38.0737 89.2408 38.467C88.7989 38.7012 88.6265 39.3906 88.4586 39.8325C88.286 40.2989 88.1544 40.7794 88.0653 41.2687C88.0033 41.4925 88.0291 41.7316 88.1376 41.9369C88.246 42.1423 88.4288 42.2985 88.6486 42.3735C88.6934 42.3864 88.7393 42.3953 88.7856 42.4C88.8365 42.4623 88.8997 42.5135 88.9712 42.5502C89.0452 42.5816 89.1222 42.6053 89.201 42.6209H89.2452H89.2762C89.3781 42.6432 89.4836 42.6432 89.5855 42.6209C90.2824 42.5098 90.9377 42.2171 91.4857 41.7725C92.3342 41.2289 92.5684 39.775 91.7906 39.0105Z" fill="#F2B00A"/>
<path d="M90.9731 38.6261C90.2837 38.2682 88.8961 38.14 88.3216 38.7322C88.0282 39.1092 87.8849 39.5815 87.9195 40.0579C87.8923 40.5548 87.9086 41.0531 87.9681 41.5472C87.9748 41.7795 88.07 42.0004 88.2343 42.1647C88.3987 42.3291 88.6196 42.4243 88.8519 42.431C88.8975 42.4351 88.9433 42.4351 88.9889 42.431C89.0557 42.4753 89.1309 42.5054 89.2099 42.5194C89.2892 42.5275 89.3692 42.5275 89.4485 42.5194H89.5457C89.6501 42.5163 89.7526 42.4907 89.8462 42.4443C90.4793 42.1314 91.0188 41.6574 91.4106 41.0699C92.0072 40.2568 91.9409 39.1299 90.9731 38.6261Z" fill="#FFD217"/>
<path d="M73.0046 53.4832C72.2887 53.7837 71.4447 54.8089 71.5198 55.6265C71.564 56.1258 72.1385 56.5501 72.4832 56.8727C72.8477 57.2112 73.241 57.5173 73.6587 57.7874C73.8412 57.9318 74.072 58.0007 74.3038 57.9802C74.5355 57.9596 74.7506 57.8511 74.9049 57.677C74.9333 57.641 74.9584 57.6025 74.98 57.5621C75.0564 57.5384 75.1271 57.4993 75.1877 57.4472C75.2453 57.3922 75.2971 57.3315 75.3424 57.266L75.3689 57.2306V57.2041C75.4325 57.1219 75.4777 57.0269 75.5015 56.9257C75.666 56.2407 75.6477 55.5245 75.4484 54.8487C75.2805 53.8367 74.0299 53.0634 73.0046 53.4832Z" fill="#F2B00A"/>
<path d="M72.3599 54.093C71.7633 54.5924 71.1137 55.8209 71.4319 56.5987C71.6687 57.0173 72.0532 57.3325 72.5101 57.4825C72.958 57.6979 73.4237 57.8739 73.9021 58.0084C74.1196 58.0921 74.3608 58.0893 74.5762 58.0005C74.7915 57.9117 74.9647 57.7437 75.06 57.5311C75.0772 57.4882 75.0905 57.4438 75.0997 57.3986C75.165 57.3542 75.2207 57.2971 75.2632 57.2306C75.3016 57.1603 75.3327 57.0863 75.356 57.0097C75.356 57.0097 75.356 56.9832 75.356 56.9699V56.939C75.3931 56.8403 75.4082 56.7347 75.4002 56.6296C75.3546 55.9255 75.1244 55.2457 74.7329 54.6587C74.2601 53.7616 73.1951 53.3948 72.3599 54.093Z" fill="#FFD217"/>
<path d="M103.179 53.0943C102.626 52.5508 101.376 52.1575 100.629 52.5508C100.187 52.785 100.015 53.4744 99.8468 53.9163C99.6742 54.3827 99.5426 54.8632 99.4535 55.3525C99.3915 55.5763 99.4173 55.8154 99.5257 56.0207C99.6342 56.2261 99.817 56.3823 100.037 56.4573C100.082 56.4702 100.127 56.4791 100.174 56.4838C100.225 56.5461 100.288 56.5973 100.359 56.634C100.433 56.6654 100.51 56.6891 100.589 56.7048H100.633H100.664C100.766 56.727 100.872 56.727 100.974 56.7048C101.671 56.5936 102.326 56.3009 102.874 55.8563C103.718 55.3127 103.939 53.8632 103.179 53.0943Z" fill="#F2B00A"/>
<path d="M102.361 52.7143C101.672 52.3564 100.284 52.2282 99.7098 52.8204C99.4164 53.1973 99.2731 53.6697 99.3077 54.1461C99.2805 54.643 99.2968 55.1413 99.3563 55.6354C99.3629 55.8677 99.4582 56.0886 99.6225 56.2529C99.7868 56.4173 100.008 56.5125 100.24 56.5192C100.286 56.5233 100.332 56.5233 100.377 56.5192C100.444 56.5635 100.519 56.5936 100.598 56.6076C100.677 56.6157 100.757 56.6157 100.837 56.6076H100.934C101.038 56.6045 101.141 56.5789 101.234 56.5325C101.867 56.2196 102.407 55.7456 102.799 55.1581C103.4 54.345 103.325 53.2093 102.361 52.7143Z" fill="#FFD217"/>
<path d="M95.7809 30.1237C95.2285 29.5801 93.9779 29.1868 93.231 29.5801C92.7891 29.8143 92.6168 30.5037 92.4489 30.9456C92.2763 31.412 92.1447 31.8926 92.0555 32.3819C91.9935 32.6057 92.0193 32.8447 92.1278 33.0501C92.2362 33.2555 92.4191 33.4116 92.6389 33.4866C92.6836 33.4996 92.7295 33.5085 92.7759 33.5132C92.8267 33.5755 92.8899 33.6267 92.9615 33.6634C93.0355 33.6948 93.1124 33.7185 93.1913 33.7341H93.2355H93.2664C93.3683 33.7564 93.4738 33.7564 93.5757 33.7341C94.2726 33.6229 94.928 33.3303 95.476 32.8856C96.32 32.3377 96.5542 30.8882 95.7809 30.1237Z" fill="#F2B00A"/>
<path d="M94.9633 29.7392C94.2739 29.3813 92.8863 29.2531 92.3118 29.8453C92.0184 30.2223 91.8752 30.6946 91.9097 31.171C91.8826 31.6679 91.8988 32.1662 91.9583 32.6603C91.965 32.8926 92.0602 33.1135 92.2246 33.2778C92.3889 33.4422 92.6098 33.5374 92.8421 33.5441C92.8877 33.5482 92.9336 33.5482 92.9791 33.5441C93.0459 33.5884 93.1211 33.6185 93.2001 33.6325C93.2794 33.6406 93.3594 33.6406 93.4387 33.6325H93.536C93.6404 33.6294 93.7429 33.6038 93.8364 33.5574C94.4695 33.2445 95.0091 32.7705 95.4008 32.183C95.9841 31.3699 95.9267 30.2297 94.9633 29.7392Z" fill="#FFD217"/>
<path d="M64.2594 35.8951C63.707 35.3515 62.4564 34.9582 61.7096 35.3515C61.2676 35.5858 61.0953 36.2751 60.9274 36.7171C60.7548 37.1835 60.6232 37.664 60.5341 38.1533C60.472 38.3771 60.4979 38.6161 60.6063 38.8215C60.7147 39.0269 60.8976 39.1831 61.1174 39.2581C61.1622 39.271 61.208 39.2799 61.2544 39.2846C61.3052 39.3469 61.3684 39.3981 61.44 39.4348C61.514 39.4662 61.591 39.4899 61.6698 39.5055H61.714H61.7449C61.8468 39.5278 61.9523 39.5278 62.0542 39.5055C62.7511 39.3943 63.4065 39.1017 63.9545 38.6571C64.803 38.1091 65.0504 36.6596 64.2594 35.8951Z" fill="#F2B00A"/>
<path d="M63.4418 35.5327C62.7525 35.1747 61.3649 35.0466 60.7904 35.6387C60.497 36.0157 60.3537 36.488 60.3882 36.9645C60.3611 37.4614 60.3773 37.9597 60.4368 38.4537C60.4435 38.686 60.5388 38.907 60.7031 39.0713C60.8674 39.2356 61.0884 39.3309 61.3207 39.3376C61.3662 39.3416 61.4121 39.3416 61.4577 39.3376C61.5244 39.3819 61.5997 39.412 61.6786 39.4259C61.7579 39.434 61.8379 39.434 61.9172 39.4259H62.0145C62.1189 39.4228 62.2214 39.3972 62.315 39.3508C62.948 39.038 63.4876 38.564 63.8793 37.9765C64.4803 37.1412 64.4096 36.0144 63.4418 35.5327Z" fill="#FFD217"/>
<path d="M64.5101 62.5019C66.9481 60.3366 66.7986 56.1878 64.1763 53.2353C61.554 50.2827 57.4518 49.6445 55.0139 51.8098C52.576 53.975 52.7254 58.1239 55.3477 61.0764C57.97 64.0289 62.0722 64.6671 64.5101 62.5019Z" fill="#7EA83B"/>
<path d="M54.6699 52.1398L56.4111 50.571L66.0757 61.0753L64.1048 62.8252" fill="#7EA83B"/>
<path d="M65.7333 61.4153C68.1712 59.2501 68.0218 55.1013 65.3995 52.1487C62.7771 49.1962 58.675 48.558 56.237 50.7232C53.7991 52.8885 53.9486 57.0373 56.5709 59.9899C59.1932 62.9424 63.2953 63.5806 65.7333 61.4153Z" fill="#A2CB6B"/>
<path d="M65.1376 60.7447C67.269 58.8517 67.1377 55.2239 64.8444 52.6418C62.5511 50.0597 58.9642 49.501 56.8328 51.394C54.7015 53.287 54.8327 56.9148 57.126 59.4969C59.4193 62.079 63.0063 62.6376 65.1376 60.7447Z" fill="#ECFFCF"/>
<path d="M58.6469 52.3608L58.2315 51.8791C58.1447 51.8007 58.0304 51.76 57.9136 51.7658C57.7968 51.7716 57.6871 51.8235 57.6084 51.91C57.5301 51.9968 57.4894 52.1111 57.4952 52.2279C57.501 52.3447 57.5528 52.4545 57.6394 52.5331L58.0548 53.0148C58.1416 53.0931 58.2559 53.1338 58.3727 53.128C58.4895 53.1222 58.5992 53.0704 58.6779 52.9839C58.7562 52.897 58.7969 52.7827 58.7911 52.6659C58.7853 52.5491 58.7335 52.4394 58.6469 52.3608Z" fill="#B5E47C"/>
<path d="M57.7014 54.504C57.5998 54.5129 57.4984 54.4863 57.4142 54.4289C57.3273 54.3506 57.213 54.3099 57.0962 54.3157C56.9794 54.3215 56.8697 54.3733 56.7911 54.4599C56.7127 54.5467 56.672 54.661 56.6778 54.7778C56.6836 54.8946 56.7354 55.0043 56.822 55.083C57.0811 55.2867 57.4028 55.3944 57.7323 55.3879C57.8495 55.3838 57.9603 55.3333 58.0403 55.2475C58.1203 55.1617 58.1629 55.0477 58.1588 54.9305C58.1547 54.8133 58.1042 54.7025 58.0184 54.6226C57.9326 54.5426 57.8186 54.4999 57.7014 54.504Z" fill="#B5E47C"/>
<path d="M57.6306 56.391C57.4951 56.4205 57.3672 56.4776 57.2549 56.559C56.813 56.8904 57.2549 57.6328 57.7322 57.3014C57.778 57.2613 57.8352 57.2366 57.8957 57.2307C58.0076 57.1961 58.1012 57.1184 58.1559 57.0148C58.2105 56.9113 58.2219 56.7902 58.1874 56.6783C58.1698 56.6228 58.1414 56.5713 58.1039 56.5268C58.0664 56.4823 58.0204 56.4456 57.9687 56.4189C57.9169 56.3922 57.8604 56.376 57.8024 56.3712C57.7444 56.3665 57.686 56.3732 57.6306 56.391Z" fill="#B5E47C"/>
<path d="M59.6457 58.8481C59.5823 58.7497 59.4825 58.6806 59.3682 58.6557C59.2539 58.6309 59.1344 58.6524 59.0359 58.7155C58.8345 58.8618 58.6944 59.0774 58.6426 59.3209C58.5321 59.8777 59.3938 60.0766 59.5043 59.5198C59.5043 59.4756 59.5043 59.4667 59.5043 59.4623C59.5543 59.4316 59.5977 59.3913 59.6319 59.3436C59.6662 59.296 59.6906 59.242 59.7038 59.1848C59.7169 59.1277 59.7186 59.0684 59.7086 59.0106C59.6987 58.9528 59.6773 58.8975 59.6457 58.8481Z" fill="#B5E47C"/>
<path d="M60.4635 59.3961C60.4182 59.6393 60.4033 59.8872 60.4193 60.1341C60.4591 60.6997 61.3429 60.6732 61.3031 60.1031C61.2817 59.9344 61.2817 59.7636 61.3031 59.5949C61.4224 59.0425 60.5651 58.8437 60.4635 59.3961Z" fill="#B5E47C"/>
<path d="M63.3758 59.9043C63.2927 59.7991 63.2338 59.6769 63.2034 59.5463C63.0664 58.9939 62.2268 59.2591 62.3594 59.8115C62.4094 60.0192 62.5011 60.2147 62.6289 60.386C62.6923 60.4843 62.7921 60.5534 62.9064 60.5783C63.0208 60.6031 63.1403 60.5816 63.2388 60.5185C63.2884 60.4875 63.3314 60.4469 63.3652 60.3991C63.399 60.3513 63.423 60.2972 63.4357 60.2401C63.4485 60.1829 63.4498 60.1238 63.4395 60.0661C63.4292 60.0085 63.4075 59.9535 63.3758 59.9043Z" fill="#B5E47C"/>
<path d="M65.152 58.9011C65.0668 58.8164 64.9926 58.7214 64.931 58.6183C64.6349 58.1322 63.8881 58.6183 64.1886 59.0955C64.2943 59.2571 64.4189 59.4055 64.5598 59.5374C64.962 59.9528 65.5541 59.2988 65.152 58.9011Z" fill="#B5E47C"/>
<path d="M65.8814 56.7666C65.818 56.6683 65.7182 56.5991 65.6039 56.5743C65.4895 56.5494 65.37 56.5709 65.2715 56.6341C65.2278 56.643 65.1827 56.643 65.139 56.6341C64.5689 56.6341 64.5998 57.5179 65.1699 57.5179C65.3723 57.5164 65.5712 57.4648 65.7488 57.3676C65.8447 57.3044 65.9122 57.2062 65.9369 57.094C65.9617 56.9818 65.9417 56.8644 65.8814 56.7666Z" fill="#B5E47C"/>
<path d="M65.0153 53.9693L64.4099 54.2345C64.298 54.2691 64.2045 54.3467 64.1498 54.4503C64.0951 54.5539 64.0837 54.6749 64.1183 54.7869C64.1529 54.8988 64.2305 54.9923 64.3341 55.047C64.4377 55.1017 64.5587 55.113 64.6706 55.0785L65.2761 54.8134C65.388 54.7788 65.4815 54.7011 65.5362 54.5976C65.5909 54.494 65.6023 54.3729 65.5677 54.261C65.5331 54.1491 65.4555 54.0555 65.3519 54.0008C65.2483 53.9461 65.1273 53.9348 65.0153 53.9693Z" fill="#B5E47C"/>
<path d="M63.5304 52.3564C63.4436 52.278 63.3292 52.2373 63.2124 52.2431C63.0956 52.2489 62.9859 52.3007 62.9073 52.3873L62.6421 52.7452C62.5638 52.8321 62.5231 52.9464 62.5289 53.0632C62.5347 53.18 62.5865 53.2897 62.6731 53.3683C62.7599 53.4467 62.8742 53.4874 62.991 53.4816C63.1078 53.4758 63.2175 53.4239 63.2962 53.3374L63.5613 52.9795C63.6396 52.8926 63.6804 52.7783 63.6746 52.6615C63.6688 52.5447 63.6169 52.435 63.5304 52.3564Z" fill="#B5E47C"/>
<path d="M60.8435 51.5918L60.764 52.0338C60.6668 52.595 61.5285 52.7938 61.6257 52.2326L61.7053 51.7907C61.8025 51.2339 60.9407 51.0306 60.8435 51.5918Z" fill="#B5E47C"/>
<path d="M61.917 54.2124C61.5326 53.744 60.9536 53.2357 60.2908 53.3993C60.1416 53.4363 60.0036 53.5086 59.8882 53.6101C59.7728 53.7116 59.6836 53.8394 59.6279 53.9826L59.5749 54.0268C59.4812 54.1321 59.4132 54.2576 59.376 54.3936C59.0004 54.9239 59.1639 55.8298 59.4114 56.3468C59.5616 56.6875 59.8026 56.9804 60.1082 57.1931C60.4138 57.4059 60.772 57.5305 61.1437 57.5532C61.244 57.5479 61.3426 57.5255 61.4353 57.487C61.5104 57.4918 61.5857 57.4918 61.6607 57.487C63.4195 57.1865 62.6462 55.0962 61.917 54.2124Z" fill="#FEFFFD"/>
<path d="M102.05 60.7472C105.369 58.6086 106.629 54.6528 104.863 51.9117C103.097 49.1706 98.9746 48.6822 95.6549 50.8207C92.3352 52.9593 91.0756 56.9151 92.8414 59.6562C94.6073 62.3973 98.7299 62.8858 102.05 60.7472Z" fill="#7EA83B"/>
<path d="M93.1209 60.0412L91.835 58.0791L103.7 50.1379L105.123 52.3563" fill="#7EA83B"/>
<path d="M101.168 59.3679C104.488 57.2293 105.747 53.2735 103.981 50.5324C102.215 47.7913 98.0928 47.3028 94.7731 49.4414C91.4534 51.58 90.1937 55.5358 91.9596 58.2769C93.7254 61.018 97.8481 61.5065 101.168 59.3679Z" fill="#A2CB6B"/>
<path d="M100.766 58.7438C103.669 56.8735 104.771 53.4147 103.227 51.0182C101.683 48.6218 98.0784 48.1953 95.1752 50.0655C92.272 51.9358 91.17 55.3947 92.7138 57.7911C94.2576 60.1875 97.8626 60.614 100.766 58.7438Z" fill="#ECFFCF"/>
<path d="M93.9475 56.1435L93.4083 56.4838C93.3629 56.5203 93.3252 56.5654 93.2973 56.6165C93.2694 56.6676 93.2518 56.7237 93.2456 56.7816C93.2395 56.8395 93.2448 56.898 93.2614 56.9539C93.2779 57.0097 93.3053 57.0617 93.342 57.1069C93.3785 57.1523 93.4236 57.1901 93.4747 57.218C93.5258 57.2459 93.5819 57.2634 93.6398 57.2696C93.6977 57.2757 93.7563 57.2704 93.8121 57.2539C93.8679 57.2373 93.9199 57.2099 93.9651 57.1732L94.5043 56.8329C94.5497 56.7965 94.5874 56.7514 94.6153 56.7003C94.6432 56.6492 94.6608 56.5931 94.6669 56.5352C94.6731 56.4773 94.6678 56.4187 94.6512 56.3629C94.6347 56.307 94.6073 56.255 94.5706 56.2098C94.5341 56.1644 94.489 56.1267 94.4379 56.0988C94.3868 56.0709 94.3307 56.0533 94.2728 56.0472C94.2149 56.041 94.1563 56.0463 94.1005 56.0629C94.0447 56.0794 93.9927 56.1068 93.9475 56.1435Z" fill="#B5E47C"/>
<path d="M95.9226 57.4074C95.9171 57.5093 95.8765 57.6061 95.8077 57.6814C95.7623 57.7179 95.7246 57.763 95.6967 57.8141C95.6688 57.8652 95.6512 57.9213 95.6451 57.9792C95.6389 58.0371 95.6442 58.0957 95.6608 58.1515C95.6773 58.2073 95.7047 58.2593 95.7414 58.3045C95.7779 58.3499 95.823 58.3877 95.8741 58.4156C95.9252 58.4435 95.9813 58.4611 96.0392 58.4672C96.0971 58.4734 96.1557 58.468 96.2115 58.4515C96.2673 58.4349 96.3193 58.4075 96.3645 58.3708C96.606 58.1461 96.7621 57.8447 96.8065 57.5179C96.8211 57.4007 96.7886 57.2825 96.7161 57.1893C96.6436 57.096 96.537 57.0354 96.4198 57.0208C96.3026 57.0061 96.1844 57.0386 96.0911 57.1111C95.9979 57.1837 95.9373 57.2902 95.9226 57.4074Z" fill="#B5E47C"/>
<path d="M97.7521 57.7654C97.761 57.9042 97.7986 58.0396 97.8626 58.1631C98.1189 58.6669 98.9276 58.3134 98.6713 57.8052C98.639 57.7537 98.6236 57.6935 98.6271 57.6328C98.6185 57.5753 98.5986 57.5201 98.5686 57.4703C98.5386 57.4205 98.4991 57.3772 98.4523 57.3427C98.4055 57.3082 98.3523 57.2833 98.2959 57.2694C98.2394 57.2555 98.1808 57.2528 98.1233 57.2616C98.0659 57.2702 98.0106 57.2901 97.9609 57.3201C97.9111 57.3501 97.8677 57.3897 97.8332 57.4365C97.7987 57.4833 97.7738 57.5364 97.7599 57.5929C97.746 57.6493 97.7434 57.7079 97.7521 57.7654Z" fill="#B5E47C"/>
<path d="M100.514 56.1524C100.461 56.1759 100.413 56.2096 100.373 56.2516C100.333 56.2936 100.302 56.3432 100.281 56.3973C100.26 56.4515 100.25 56.5093 100.251 56.5673C100.253 56.6254 100.265 56.6826 100.289 56.7357C100.403 56.9574 100.595 57.1291 100.828 57.2174C101.363 57.4118 101.712 56.5899 101.155 56.3954C101.115 56.3954 101.102 56.3954 101.098 56.3954C101.093 56.3954 101.098 56.3954 101.098 56.3954C101.076 56.3408 101.043 56.291 101.002 56.249C100.961 56.2071 100.911 56.1738 100.857 56.1512C100.803 56.1285 100.744 56.117 100.686 56.1172C100.627 56.1174 100.568 56.1294 100.514 56.1524Z" fill="#B5E47C"/>
<path d="M101.186 55.4188C101.418 55.5 101.66 55.5519 101.906 55.5735C102.472 55.6221 102.578 54.7427 102.012 54.6897C101.842 54.6771 101.674 54.6429 101.513 54.588C100.974 54.4245 100.647 55.2421 101.186 55.4188Z" fill="#B5E47C"/>
<path d="M102.127 52.6259C102.01 52.6917 101.881 52.7309 101.747 52.7408C101.181 52.7894 101.305 53.6644 101.88 53.6246C102.093 53.6062 102.301 53.5446 102.489 53.4434C102.543 53.4199 102.591 53.3862 102.631 53.3442C102.671 53.3022 102.702 53.2526 102.723 53.1985C102.744 53.1443 102.754 53.0865 102.753 53.0285C102.751 52.9704 102.738 52.9132 102.715 52.8601C102.692 52.8056 102.659 52.7563 102.617 52.7149C102.575 52.6735 102.525 52.6409 102.47 52.6191C102.416 52.5973 102.357 52.5866 102.298 52.5878C102.239 52.589 102.181 52.6019 102.127 52.6259Z" fill="#B5E47C"/>
<path d="M101.407 50.7213C101.31 50.7931 101.204 50.8525 101.093 50.8981C100.986 50.9455 100.902 51.0337 100.859 51.143C100.817 51.2524 100.82 51.3741 100.867 51.4814C100.915 51.5886 101.003 51.6726 101.112 51.7149C101.222 51.7572 101.344 51.7542 101.451 51.7068C101.633 51.6295 101.805 51.53 101.963 51.4107C102.419 51.0704 101.862 50.381 101.407 50.7213Z" fill="#B5E47C"/>
<path d="M99.4093 49.6739C99.3562 49.6974 99.3082 49.7311 99.2681 49.7731C99.228 49.8152 99.1966 49.8647 99.1757 49.9189C99.1548 49.973 99.1447 50.0308 99.1461 50.0889C99.1475 50.1469 99.1604 50.2042 99.1839 50.2573C99.1929 50.301 99.1929 50.3461 99.1839 50.3898C99.0911 50.9511 99.9705 51.0571 100.068 50.4959C100.097 50.295 100.076 50.09 100.006 49.8993C99.9825 49.8445 99.9483 49.795 99.9053 49.7538C99.8623 49.7126 99.8114 49.6805 99.7556 49.6594C99.6999 49.6384 99.6405 49.6288 99.581 49.6313C99.5215 49.6338 99.4631 49.6483 99.4093 49.6739Z" fill="#B5E47C"/>
<path d="M96.5104 50.1158L96.6784 50.7566C96.687 50.814 96.7069 50.8693 96.7369 50.919C96.7669 50.9688 96.8064 51.0122 96.8532 51.0467C96.9 51.0812 96.9532 51.1061 97.0096 51.12C97.0661 51.1339 97.1247 51.1366 97.1822 51.1278C97.2396 51.1191 97.2949 51.0992 97.3446 51.0692C97.3944 51.0392 97.4378 50.9997 97.4723 50.9529C97.5068 50.9061 97.5317 50.853 97.5456 50.7965C97.5595 50.7401 97.5621 50.6814 97.5534 50.624L97.3854 49.9832C97.3768 49.9257 97.3569 49.8705 97.3269 49.8207C97.2969 49.7709 97.2574 49.7276 97.2106 49.6931C97.1638 49.6586 97.1106 49.6337 97.0542 49.6198C96.9977 49.6059 96.9391 49.6032 96.8817 49.612C96.8242 49.6206 96.7689 49.6405 96.7192 49.6705C96.6694 49.7005 96.626 49.7401 96.5915 49.7869C96.557 49.8337 96.5321 49.8868 96.5182 49.9433C96.5043 49.9997 96.5017 50.0583 96.5104 50.1158Z" fill="#B5E47C"/>
<path d="M94.6896 51.3179C94.6442 51.3543 94.6064 51.3994 94.5785 51.4505C94.5506 51.5016 94.5331 51.5577 94.5269 51.6156C94.5207 51.6735 94.5261 51.7321 94.5426 51.7879C94.5592 51.8437 94.5866 51.8957 94.6233 51.941L94.937 52.2591C95.0102 52.3457 95.1138 52.4009 95.2265 52.4132C95.3392 52.4256 95.4523 52.3941 95.5425 52.3254C95.5879 52.2889 95.6256 52.2439 95.6535 52.1928C95.6814 52.1417 95.699 52.0856 95.7051 52.0276C95.7113 51.9697 95.706 51.9112 95.6894 51.8554C95.6729 51.7995 95.6455 51.7475 95.6087 51.7023L95.295 51.3841C95.2218 51.2975 95.1182 51.2424 95.0055 51.23C94.8928 51.2177 94.7797 51.2491 94.6896 51.3179Z" fill="#B5E47C"/>
<path d="M93.5275 53.8544L93.9694 54.0003C94.5086 54.1815 94.8533 53.3639 94.2964 53.1783L93.8545 53.0325C93.3331 52.8513 92.9884 53.6512 93.5275 53.8544Z" fill="#B5E47C"/>
<path d="M96.2803 53.2092C95.7588 53.5185 95.1666 54.0135 95.2241 54.6896C95.2372 54.8429 95.287 54.9908 95.3693 55.1208C95.4516 55.2507 95.564 55.359 95.6969 55.4364C95.6969 55.4364 95.6969 55.4762 95.7323 55.4939C95.8219 55.6022 95.9354 55.6884 96.0637 55.7458C96.5277 56.1877 97.4513 56.1877 97.9993 56.0109C98.3594 55.9147 98.686 55.721 98.9433 55.4513C99.2005 55.1816 99.3785 54.8462 99.4576 54.4819C99.4748 54.3825 99.4748 54.2808 99.4576 54.1814C99.4624 54.1064 99.4624 54.0311 99.4576 53.956C99.4576 52.1663 97.2657 52.6082 96.2803 53.2092Z" fill="#FEFFFD"/>
<path d="M95.2513 41.4604C98.512 39.2328 99.6642 35.2444 97.8248 32.552C95.9855 29.8597 91.8511 29.4829 88.5904 31.7105C85.3298 33.9381 84.1776 37.9265 86.017 40.6189C87.8563 43.3112 91.9907 43.688 95.2513 41.4604Z" fill="#7EA83B"/>
<path d="M97.5354 32.1653L98.87 34.092L87.2299 42.347L85.7451 40.1728" fill="#7EA83B"/>
<path d="M96.1761 42.8161C99.4368 40.5885 100.589 36.6001 98.7496 33.9078C96.9103 31.2154 92.7759 30.8386 89.5152 33.0662C86.2546 35.2938 85.1024 39.2823 86.9418 41.9746C88.7811 44.667 92.9155 45.0437 96.1761 42.8161Z" fill="#A2CB6B"/>
<path d="M95.757 42.2031C98.6085 40.2549 99.6166 36.7676 98.0085 34.4138C96.4005 32.06 92.7853 31.7311 89.9337 33.6792C87.0821 35.6273 86.0741 39.1147 87.6822 41.4685C89.2902 43.8223 92.9054 44.1512 95.757 42.2031Z" fill="#ECFFCF"/>
<path d="M96.8151 36.0807L97.3454 35.7271C97.3895 35.6894 97.4258 35.6434 97.4521 35.5917C97.4784 35.5399 97.4943 35.4835 97.4988 35.4257C97.5033 35.3678 97.4964 35.3096 97.4784 35.2544C97.4604 35.1992 97.4318 35.1481 97.394 35.104C97.3563 35.0599 97.3103 35.0237 97.2585 34.9974C97.2068 34.9711 97.1504 34.9552 97.0926 34.9507C97.0347 34.9462 96.9765 34.9531 96.9213 34.9711C96.8661 34.989 96.815 35.0177 96.7709 35.0554L96.2406 35.409C96.1965 35.4467 96.1603 35.4927 96.134 35.5444C96.1077 35.5962 96.0918 35.6526 96.0873 35.7104C96.0828 35.7683 96.0897 35.8265 96.1077 35.8817C96.1256 35.9369 96.1543 35.988 96.192 36.0321C96.2297 36.0762 96.2758 36.1124 96.3275 36.1387C96.3792 36.165 96.4357 36.1809 96.4935 36.1854C96.5514 36.1899 96.6096 36.183 96.6647 36.165C96.7199 36.1471 96.771 36.1184 96.8151 36.0807Z" fill="#B5E47C"/>
<path d="M94.8091 34.8698C94.8134 34.7685 94.8524 34.6718 94.9196 34.5959C94.9637 34.5581 94.9999 34.5121 95.0262 34.4604C95.0526 34.4086 95.0684 34.3522 95.0729 34.2944C95.0774 34.2365 95.0705 34.1783 95.0525 34.1231C95.0346 34.068 95.0059 34.0169 94.9682 33.9728C94.9305 33.9286 94.8844 33.8924 94.8327 33.8661C94.781 33.8398 94.7246 33.8239 94.6667 33.8194C94.6088 33.8149 94.5507 33.8218 94.4955 33.8398C94.4403 33.8578 94.3892 33.8864 94.3451 33.9241C94.107 34.1608 93.9599 34.4737 93.9297 34.808C93.9298 34.9197 93.9723 35.0273 94.0485 35.109C94.1247 35.1907 94.2291 35.2405 94.3406 35.2483C94.4521 35.2562 94.5624 35.2215 94.6493 35.1513C94.7362 35.081 94.7933 34.9805 94.8091 34.8698Z" fill="#B5E47C"/>
<path d="M92.9485 34.5649C92.9363 34.427 92.8957 34.293 92.8292 34.1716C92.5596 33.6722 91.7598 34.0478 92.0293 34.5516C92.0623 34.6013 92.0793 34.6599 92.0779 34.7196C92.0881 34.7767 92.1094 34.8313 92.1406 34.8803C92.1719 34.9292 92.2125 34.9715 92.2601 35.0048C92.3077 35.038 92.3614 35.0615 92.4181 35.074C92.4748 35.0865 92.5334 35.0877 92.5906 35.0775C92.6477 35.0674 92.7024 35.0461 92.7513 35.0148C92.8002 34.9836 92.8425 34.943 92.8758 34.8954C92.909 34.8478 92.9325 34.7941 92.945 34.7374C92.9575 34.6807 92.9587 34.622 92.9485 34.5649Z" fill="#B5E47C"/>
<path d="M90.2394 36.253C90.3447 36.2023 90.4256 36.1121 90.4645 36.002C90.5035 35.8918 90.4972 35.7708 90.4471 35.6652C90.3276 35.4485 90.1326 35.2833 89.8991 35.2012C89.36 35.02 89.0551 35.8508 89.5942 36.032H89.6517C89.6755 36.0853 89.7097 36.1333 89.7522 36.1733C89.7948 36.2133 89.8448 36.2445 89.8995 36.265C89.9541 36.2856 90.0123 36.2951 90.0706 36.293C90.129 36.2909 90.1863 36.2773 90.2394 36.253Z" fill="#B5E47C"/>
<path d="M89.5986 36.9955C89.3636 36.9199 89.1201 36.8739 88.8738 36.8585C88.3082 36.8275 88.2242 37.7069 88.7899 37.7423C88.9609 37.7502 89.1301 37.7799 89.2936 37.8307C89.8372 37.9942 90.1421 37.1634 89.5986 36.9955Z" fill="#B5E47C"/>
<path d="M88.7325 39.8193C88.8471 39.751 88.9754 39.7088 89.1081 39.6955C89.6738 39.6337 89.5191 38.7631 88.9535 38.8117C88.7406 38.8348 88.5346 38.9009 88.348 39.0062C88.2428 39.0568 88.1618 39.147 88.1229 39.2572C88.084 39.3673 88.0903 39.4884 88.1403 39.5939C88.1638 39.6481 88.1978 39.6971 88.2405 39.7379C88.2832 39.7788 88.3336 39.8106 88.3888 39.8317C88.444 39.8527 88.5029 39.8624 88.5619 39.8603C88.621 39.8581 88.679 39.8442 88.7325 39.8193Z" fill="#B5E47C"/>
<path d="M89.5061 41.7195C89.6011 41.6449 89.705 41.5825 89.8155 41.5339C89.868 41.5089 89.9151 41.4739 89.9541 41.4307C89.993 41.3876 90.0231 41.3372 90.0426 41.2824C90.0621 41.2276 90.0706 41.1695 90.0677 41.1114C90.0647 41.0534 90.0503 40.9964 90.0254 40.9439C90.0004 40.8914 89.9654 40.8443 89.9222 40.8053C89.8791 40.7664 89.8287 40.7363 89.7739 40.7168C89.6632 40.6774 89.5415 40.6836 89.4354 40.734C89.2555 40.8161 89.0863 40.92 88.9316 41.0434C88.4721 41.3836 89.0598 42.0598 89.5061 41.7195Z" fill="#B5E47C"/>
<path d="M91.5301 42.7005C91.6354 42.6499 91.7163 42.5597 91.7552 42.4495C91.7941 42.3394 91.7879 42.2183 91.7378 42.1128C91.7289 42.069 91.7289 42.0239 91.7378 41.9802C91.8129 41.4146 90.9335 41.335 90.854 41.8962C90.829 42.0983 90.8548 42.3033 90.9291 42.4928C90.9541 42.5466 90.9897 42.5949 91.0337 42.6346C91.0778 42.6744 91.1294 42.7049 91.1855 42.7243C91.2416 42.7436 91.301 42.7515 91.3602 42.7475C91.4194 42.7434 91.4772 42.7274 91.5301 42.7005Z" fill="#B5E47C"/>
<path d="M94.4156 42.1968L94.23 41.5604C94.2198 41.5032 94.1985 41.4486 94.1673 41.3997C94.136 41.3507 94.0954 41.3085 94.0478 41.2752C94.0002 41.242 93.9465 41.2184 93.8898 41.2059C93.8331 41.1935 93.7745 41.1923 93.7173 41.2025C93.6602 41.2126 93.6055 41.2339 93.5566 41.2651C93.5077 41.2964 93.4654 41.337 93.4321 41.3846C93.3989 41.4322 93.3754 41.4859 93.3629 41.5426C93.3504 41.5993 93.3492 41.6579 93.3594 41.7151L93.545 42.3514C93.5551 42.4086 93.5764 42.4632 93.6077 42.5122C93.6389 42.5611 93.6795 42.6034 93.7271 42.6366C93.7747 42.6699 93.8284 42.6934 93.8851 42.7059C93.9418 42.7184 94.0004 42.7196 94.0576 42.7094C94.1148 42.6993 94.1694 42.678 94.2183 42.6467C94.2673 42.6155 94.3096 42.5749 94.3428 42.5273C94.3761 42.4797 94.3996 42.426 94.4121 42.3693C94.4246 42.3125 94.4257 42.2539 94.4156 42.1968Z" fill="#B5E47C"/>
<path d="M96.2007 40.9241C96.2448 40.8863 96.2811 40.8403 96.3074 40.7886C96.3337 40.7368 96.3496 40.6804 96.3541 40.6226C96.3586 40.5647 96.3517 40.5065 96.3337 40.4513C96.3157 40.3962 96.287 40.3451 96.2493 40.301L95.9267 39.9916C95.889 39.9475 95.843 39.9113 95.7912 39.8849C95.7395 39.8586 95.6831 39.8428 95.6252 39.8383C95.5674 39.8337 95.5092 39.8407 95.454 39.8586C95.3988 39.8766 95.3477 39.9053 95.3036 39.943C95.2595 39.9807 95.2233 40.0268 95.197 40.0785C95.1706 40.1302 95.1548 40.1866 95.1503 40.2445C95.1458 40.3023 95.1527 40.3605 95.1706 40.4157C95.1886 40.4709 95.2173 40.522 95.255 40.5661L95.5776 40.8754C95.6153 40.9195 95.6614 40.9558 95.7131 40.9821C95.7648 41.0084 95.8212 41.0243 95.8791 41.0288C95.937 41.0333 95.9951 41.0264 96.0503 41.0084C96.1055 40.9904 96.1566 40.9618 96.2007 40.9241Z" fill="#B5E47C"/>
<path d="M97.3104 38.3609L96.8685 38.2239C96.325 38.056 96.02 38.8868 96.5636 39.0547L97.0055 39.1917C97.5358 39.3552 97.8407 38.5289 97.3104 38.3609Z" fill="#B5E47C"/>
<path d="M94.5616 39.0945C95.0742 38.7719 95.6531 38.2593 95.5736 37.5832C95.5571 37.4338 95.5057 37.2904 95.4235 37.1645C95.3414 37.0386 95.2308 36.9338 95.1007 36.8585C95.1007 36.8585 95.1007 36.8187 95.0654 36.801C94.9722 36.6948 94.8558 36.6116 94.7251 36.558C94.2478 36.116 93.3242 36.1647 92.7851 36.3458C92.428 36.4522 92.1072 36.6549 91.8577 36.9317C91.6083 37.2084 91.4399 37.5485 91.371 37.9146C91.363 38.0141 91.372 38.1142 91.3975 38.2107C91.3927 38.2858 91.3927 38.361 91.3975 38.4361C91.4152 40.2082 93.5938 39.7044 94.5616 39.0945Z" fill="#FEFFFD"/>
<path d="M104.478 21.5373C105.048 19.7697 104.036 18.5942 102.869 17.3966C102.136 16.6321 101.676 16.1018 101.871 14.9484C101.963 14.4004 102.277 13.901 102.343 13.3442C102.408 12.9401 102.383 12.5268 102.27 12.1334C102.157 11.7401 101.959 11.3765 101.689 11.0684C101.416 10.7698 101.08 10.5359 100.705 10.3835C100.33 10.2311 99.9256 10.1642 99.5215 10.1874C99.1174 10.2107 98.7236 10.3236 98.3686 10.5181C98.0136 10.7125 97.7063 10.9835 97.4691 11.3114C96.6206 12.3941 96.7002 13.8657 95.0695 14.2722C94.2431 14.4799 93.3549 14.0027 92.4843 14.3076C90.8492 14.8865 90.3454 16.9193 90.5797 18.4748C90.7669 19.7211 91.3939 20.8591 92.3473 21.6831L92.3871 21.7185C92.8934 22.1526 93.4744 22.491 94.1017 22.7172C94.1911 22.7487 94.2854 22.7637 94.3801 22.7614C97.8403 24.3479 103.099 25.8415 104.478 21.5373ZM98.4855 22.6553C96.7252 22.216 95.0353 21.5318 93.4654 20.6225C92.312 19.6813 91.5475 18.1213 92.1882 16.6763C92.9439 14.9661 94.6364 16.0222 95.9489 15.6908C96.9034 15.4522 97.447 14.807 97.8801 13.9497C98.1452 13.4326 98.2469 12.6239 98.6578 12.2262C100.611 12.2056 101.258 12.7948 100.598 13.9938C100.507 14.2193 100.433 14.4512 100.377 14.6876C100.146 15.4889 100.238 16.3486 100.633 17.0828C101.3 18.2804 103.285 19.1598 103.139 20.7109C102.958 22.947 100.054 23.0045 98.4899 22.6553H98.4855Z" fill="#D34040"/>
<path d="M84.3978 5.8246C85.3015 4.02531 84.8903 1.99213 83.4792 1.28336C82.0681 0.574583 80.1916 1.45862 79.2878 3.25791C78.384 5.0572 78.7953 7.09038 80.2064 7.79916C81.6174 8.50793 83.494 7.62389 84.3978 5.8246Z" fill="#362F44"/>
<path d="M83.8008 4.26729C83.9277 3.82547 83.9277 3.35684 83.8008 2.91503C83.7825 2.8599 83.7535 2.80891 83.7155 2.76497C83.6776 2.72103 83.6313 2.685 83.5794 2.65895C83.5275 2.63289 83.4709 2.61731 83.413 2.6131C83.3551 2.60889 83.2969 2.61614 83.2418 2.63442C83.1866 2.6527 83.1356 2.68166 83.0917 2.71964C83.0478 2.75763 83.0117 2.8039 82.9857 2.85581C82.9596 2.90772 82.944 2.96425 82.9398 3.02218C82.9356 3.08011 82.9429 3.13831 82.9611 3.19344C83.0308 3.48597 83.017 3.79216 82.9214 4.07726C82.9098 4.13445 82.9097 4.19335 82.921 4.25058C82.9323 4.30782 82.9548 4.36224 82.9873 4.41072C83.0198 4.4592 83.0615 4.50077 83.1101 4.53304C83.1587 4.5653 83.2132 4.58763 83.2705 4.59872C83.3271 4.61182 83.3857 4.61363 83.443 4.60406C83.5002 4.59448 83.5551 4.57371 83.6043 4.54293C83.6536 4.51215 83.6963 4.47196 83.73 4.42466C83.7637 4.37736 83.7877 4.32389 83.8008 4.26729Z" fill="#776F93"/>
<path d="M83.1953 4.97436C83.0904 4.92162 82.9688 4.91271 82.8574 4.94959C82.7459 4.98647 82.6536 5.06612 82.6009 5.17102C82.5481 5.27591 82.5392 5.39746 82.5761 5.50893C82.613 5.6204 82.6926 5.71265 82.7975 5.76539C82.8495 5.7915 82.9061 5.80713 82.964 5.81138C83.022 5.81563 83.0803 5.80842 83.1355 5.79016C83.1907 5.7719 83.2417 5.74295 83.2857 5.70496C83.3297 5.66696 83.3658 5.62068 83.3919 5.56874C83.418 5.5168 83.4337 5.46022 83.4379 5.40225C83.4422 5.34427 83.435 5.28602 83.4167 5.23082C83.3984 5.17563 83.3695 5.12458 83.3315 5.08057C83.2935 5.03657 83.2472 5.00048 83.1953 4.97436Z" fill="#776F93"/>
<defs>
<linearGradient id="paint0_linear_278_1665" x1="74.0964" y1="65.1188" x2="46.4503" y2="87.6652" gradientUnits="userSpaceOnUse">
<stop stop-color="#54C242"/>
<stop offset="1" stop-color="white"/>
</linearGradient>
</defs>
</svg>
